<svg width="20" height="20" viewBox="0 0 42 39" fill="none" xmlns="http://www.w3.org/2000/svg">
<path d="M35.8902 1.91106C35.8902 0.855622 35.0345 0 33.9792 0H1.91277C0.857057 0 0.000976562 0.855338 0.000976562 1.91106V6.7847H35.8906V1.91106H35.8902ZM7.86512 5.86998C6.72172 5.86998 5.79079 4.93914 5.79079 3.79565C5.79079 2.65152 6.7209 1.72096 7.86512 1.72096C9.00934 1.72096 9.94046 2.6518 9.94046 3.79565C9.9401 4.93905 9.00925 5.86998 7.86512 5.86998ZM17.9459 5.86998C16.8025 5.86998 15.8715 4.93914 15.8715 3.79565C15.8715 2.65152 16.8017 1.72096 17.9459 1.72096C19.0901 1.72096 20.0202 2.6518 20.0202 3.79565C20.0202 4.93905 19.0894 5.86998 17.9459 5.86998ZM28.0248 5.86998C26.8814 5.86998 25.9501 4.93914 25.9501 3.79565C25.9501 2.65152 26.8809 1.72096 28.0248 1.72096C29.1689 1.72096 30.0991 2.6518 30.0991 3.79565C30.0991 4.93905 29.1683 5.86998 28.0248 5.86998Z" fill="#FF9900"/>
<path d="M18.7377 3.79504C18.7377 4.23237 18.383 4.58703 17.9457 4.58703C17.508 4.58703 17.1533 4.23237 17.1533 3.79504C17.1533 3.35735 17.508 3.00269 17.9457 3.00269C18.383 3.00269 18.7377 3.35735 18.7377 3.79504Z" fill="#FF9900"/>
<path d="M28.8173 3.79504C28.8173 4.23237 28.4626 4.58703 28.0253 4.58703C27.5876 4.58703 27.2329 4.23237 27.2329 3.79504C27.2329 3.35735 27.5876 3.00269 28.0253 3.00269C28.4626 3.00269 28.8173 3.35735 28.8173 3.79504Z" fill="#FF9900"/>
<path d="M8.65661 3.79504C8.65661 4.23237 8.30195 4.58703 7.86426 4.58703C7.42693 4.58703 7.07227 4.23237 7.07227 3.79504C7.07227 3.35735 7.42693 3.00269 7.86426 3.00269C8.30195 3.00269 8.65661 3.35735 8.65661 3.79504Z" fill="#FF9900"/>
<path d="M5.79932 26.3016C5.79932 25.1609 6.72409 24.2361 7.86485 24.2361C9.00561 24.2361 9.93038 25.1609 9.93038 26.3016C9.93038 27.4424 9.00561 28.3671 7.86485 28.3671C6.72409 28.3671 5.79932 27.4424 5.79932 26.3016Z" fill="#FF9900"/>
<path d="M0 32.1147C0 33.1701 0.855696 34.0257 1.9118 34.0257H21.6509C20.5705 32.3115 19.9431 30.284 19.9431 28.1081C19.9431 21.969 24.9198 16.9912 31.0601 16.9912C32.7912 16.9912 34.4299 17.3873 35.8904 18.0927L35.8901 8.06689H0.000466926L0 32.1147ZM24.6774 12.7667C24.6774 12.4128 24.9648 12.1254 25.3187 12.1254H30.7321C31.086 12.1254 31.3734 12.4128 31.3734 12.7667V15.6595C31.3734 16.0134 31.086 16.3008 30.7321 16.3008C30.3781 16.3008 30.0907 16.0134 30.0907 15.6595V13.4081H25.96V17.3101C25.96 17.664 25.6726 17.9514 25.3187 17.9514C24.9648 17.9514 24.6774 17.664 24.6774 17.3101V12.7667ZM14.5966 12.7667C14.5966 12.4128 14.884 12.1254 15.2379 12.1254H20.6524C21.0063 12.1254 21.2937 12.4128 21.2937 12.7667V18.1812C21.2937 18.5351 21.0063 18.8225 20.6524 18.8225H15.2379C14.884 18.8225 14.5966 18.5351 14.5966 18.1812V12.7667ZM14.5966 23.596C14.5966 23.2421 14.884 22.9547 15.2379 22.9547H19.9578C20.3117 22.9547 20.5991 23.2421 20.5991 23.596C20.5991 23.9499 20.3117 24.2373 19.9578 24.2373H15.8793V28.3684H18.9532C19.3071 28.3684 19.5945 28.6558 19.5945 29.0097C19.5945 29.3637 19.3071 29.6511 18.9532 29.6511H15.2379C14.884 29.6511 14.5966 29.3637 14.5966 29.0097V23.596ZM4.51586 12.7667C4.51586 12.4128 4.80324 12.1254 5.15719 12.1254H10.5709C10.9249 12.1254 11.2122 12.4128 11.2122 12.7667V18.1812C11.2122 18.5351 10.9249 18.8225 10.5709 18.8225H5.15719C4.80324 18.8225 4.51586 18.5351 4.51586 18.1812V12.7667ZM4.51586 23.596C4.51586 23.2421 4.80324 22.9547 5.15719 22.9547H10.5709C10.9249 22.9547 11.2122 23.2421 11.2122 23.596V29.0097C11.2122 29.3637 10.9249 29.6511 10.5709 29.6511H5.15719C4.80324 29.6511 4.51586 29.3637 4.51586 29.0097V23.596Z" fill="#FF9900"/>
<path d="M31.0596 18.0181C25.4874 18.0181 20.9688 22.5357 20.9688 28.1089C20.9688 33.6821 25.4866 38.1997 31.0596 38.1997C36.6318 38.1997 41.1504 33.6821 41.1504 28.1089C41.1504 22.5357 36.6322 18.0181 31.0596 18.0181ZM35.9805 23.8584L30.8202 32.989C30.73 33.1486 30.5761 33.2621 30.3975 33.3004C30.3524 33.31 30.3073 33.3147 30.2622 33.3147C30.127 33.3147 29.9945 33.2721 29.8836 33.1912L26.3184 30.5808C26.0321 30.3715 25.9705 29.9703 26.1792 29.6847C26.3878 29.3988 26.7886 29.3365 27.0753 29.5455L30.0583 31.7297L34.8643 23.2267C35.0382 22.9178 35.4308 22.8094 35.7379 22.984C36.046 23.1583 36.1548 23.5499 35.9805 23.8584Z" fill="#658F0D"/>
</svg>
