<svg width="19" height="21" viewBox="0 0 19 21" fill="none" xmlns="http://www.w3.org/2000/svg">
<path d="M11.2087 13.8947C10.8928 13.8056 10.5545 13.8887 10.3012 14.1071L9.11742 15.1282C8.77728 15.4215 8.2946 15.4604 7.92391 15.2117C6.56505 14.3002 5.45298 13.1263 4.58941 11.6919C4.35382 11.3006 4.39054 10.7911 4.66859 10.432L5.63589 9.18241C5.84274 8.91508 5.92151 8.55797 5.83714 8.22451C5.41963 6.5728 4.5346 5.39948 3.19902 4.68866C2.89966 4.52934 2.54396 4.5502 2.24952 4.71943C1.61534 5.08395 1.00585 5.49062 0.424671 5.94213C0.108779 6.18756 -0.0535066 6.60031 0.015845 7.00789C0.506795 9.88764 1.99278 12.9034 4.38431 15.4284C6.77606 17.9531 9.63321 19.5216 12.3613 20.0397C12.7475 20.113 13.1385 19.9417 13.371 19.6081C13.7987 18.9946 14.184 18.3512 14.5293 17.6818C14.6896 17.371 14.7094 16.9955 14.5584 16.6795C13.885 15.2698 12.7735 14.3356 11.2088 13.8948L11.2087 13.8947Z" fill="url(#paint0_linear_853_914)"/>
<path d="M16.2557 2.89627C14.4072 0.945254 11.8452 -0.108346 9.22507 0.00883016C8.96944 0.0200736 8.771 0.248045 8.78166 0.517868C8.79231 0.788149 9.01781 0.993049 9.26389 0.986232C11.6303 0.876906 13.9348 1.83006 15.6002 3.588C17.2655 5.34625 18.164 7.78422 18.065 10.2766C18.0544 10.5464 18.2528 10.7744 18.5087 10.7856C18.5151 10.7858 18.5217 10.7861 18.5285 10.7861C18.7754 10.7861 18.9806 10.5803 18.9911 10.3175C19.1007 7.55228 18.1037 4.84731 16.2554 2.89615L16.2557 2.89627Z" fill="url(#paint1_linear_853_914)"/>
<path d="M9.21752 2.61119C8.9619 2.62717 8.76694 2.85854 8.78208 3.12807C8.79721 3.39791 9.015 3.60575 9.27173 3.58772C10.9793 3.48328 12.6524 4.15122 13.8594 5.42512C15.0664 6.69917 15.7007 8.4642 15.6002 10.2678C15.5851 10.5375 15.78 10.7689 16.0356 10.7847C16.0449 10.7853 16.0541 10.7856 16.0633 10.7856C16.3068 10.7856 16.5109 10.5851 16.5255 10.3251C16.6416 8.24297 15.9088 6.20496 14.5149 4.73363C13.121 3.26238 11.1878 2.48778 9.21758 2.61147L9.21752 2.61119Z" fill="url(#paint2_linear_853_914)"/>
<path d="M13.5567 10.7842C13.5714 10.7857 13.5858 10.7863 13.6003 10.7863C13.8368 10.7863 14.0387 10.596 14.0611 10.3426C14.185 8.94102 13.7158 7.56653 12.7735 6.57209C11.8315 5.57764 10.5306 5.08235 9.2016 5.21297C8.94681 5.23798 8.75959 5.47645 8.78327 5.74542C8.80681 6.01437 9.03301 6.21143 9.28767 6.187C10.3408 6.08315 11.3717 6.47593 12.1182 7.26386C12.8648 8.05194 13.2365 9.14102 13.1384 10.2518C13.1146 10.5207 13.3018 10.7592 13.5567 10.7842L13.5567 10.7842Z" fill="url(#paint3_linear_853_914)"/>
<defs>
<linearGradient id="paint0_linear_853_914" x1="7.33065" y1="4.58008" x2="-29.0368" y2="33.5004" gradientUnits="userSpaceOnUse">
<stop stop-color="#ffff"/>
<stop offset="1" stop-color="#ffff" stop-opacity="0"/>
</linearGradient>
<linearGradient id="paint1_linear_853_914" x1="13.8903" y1="-7.14027e-07" x2="-11.4556" y2="20.1557" gradientUnits="userSpaceOnUse">
<stop stop-color="#ffff"/>
<stop offset="1" stop-color="#ffff" stop-opacity="0"/>
</linearGradient>
<linearGradient id="paint2_linear_853_914" x1="12.6593" y1="2.59863" x2="-6.57916" y2="17.8984" gradientUnits="userSpaceOnUse">
<stop stop-color="#ffff"/>
<stop offset="1" stop-color="#ffff" stop-opacity="0"/>
</linearGradient>
<linearGradient id="paint3_linear_853_914" x1="11.4309" y1="5.19238" x2="-1.71401" y2="15.6458" gradientUnits="userSpaceOnUse">
<stop stop-color="#ffff"/>
<stop offset="1" stop-color="#ffff" stop-opacity="0"/>
</linearGradient>
</defs>
</svg>
