<svg width="19" height="15" viewBox="0 0 19 15" fill="none" xmlns="http://www.w3.org/2000/svg">
<path fill-rule="evenodd" clip-rule="evenodd" d="M0.476013 0H18.5238L11.5177 6.03217L11.5139 6.03485L9.49987 7.76975L7.49537 6.04476L7.4916 6.04135V6.0415C7.4864 6.0366 7.4809 6.03215 7.47526 6.02784L0.476013 0ZM19 0.410164L12.1468 6.30971L19 14.3024V0.410164ZM18.5921 14.7782L11.6782 6.71368L9.93443 8.21463L9.69954 8.41623L9.69448 8.42068L9.68899 8.42498L9.68349 8.42944L9.67828 8.4333L9.67264 8.4376L9.667 8.44146L9.65572 8.44859L9.64979 8.45215L9.64386 8.45527L9.63778 8.45868L9.63186 8.4618L9.62592 8.46477L9.61956 8.46729L9.61349 8.46996L9.60755 8.47249L9.60119 8.47471L9.59483 8.47679L9.58846 8.47902L9.58195 8.4811L9.57559 8.48273L9.56952 8.48436L9.56272 8.48615L9.55621 8.48733H9.54985L9.54334 8.48852H9.4512L9.4447 8.48718L9.43819 8.486L9.43182 8.48421L9.42531 8.48258L9.41895 8.48095L9.41244 8.47887L9.40608 8.47709L9.39957 8.47457L9.3932 8.47234L9.38684 8.46982L9.38048 8.46714L9.37455 8.46418L9.36818 8.46121L9.36225 8.45809L9.35618 8.45497L9.35025 8.45156L9.34432 8.4477L9.34446 8.44755C9.34229 8.44666 9.34027 8.44547 9.33839 8.44399L9.33202 8.44206L9.32609 8.43775L9.32045 8.43389L9.31481 8.42944L9.30917 8.42513L9.30367 8.41964L7.32191 6.71351L0.407948 14.7781L18.5921 14.7782ZM0 14.3024L6.85323 6.30971L0 0.410164V14.3024Z" fill="url(#paint0_linear_853_912)"/>
<defs>
<linearGradient id="paint0_linear_853_912" x1="9.5" y1="-9.78304e-07" x2="-26.0392" y2="38.3553" gradientUnits="userSpaceOnUse">
<stop stop-color="#FAA82E"/>
<stop offset="1" stop-color="#979797" stop-opacity="0"/>
</linearGradient>
</defs>
</svg>
