<svg width="85" height="85" viewBox="0 0 85 85" fill="none" xmlns="http://www.w3.org/2000/svg">
<path d="M47.1573 0.312736C26.3399 0.312736 9.37109 17.2816 9.37109 38.2739C9.37109 43.6968 10.5956 48.7699 12.5199 53.4935C16.3687 50.3447 19.3425 46.3208 21.4418 41.5978C21.7915 40.898 22.1417 40.1982 22.4913 39.6735V38.2739C22.4913 24.629 33.5121 13.6079 47.1573 13.6079C60.8022 13.6079 71.8233 24.6287 71.8233 38.2739C71.8233 51.0446 62.027 61.7154 49.4315 62.765C46.2826 66.4387 41.0342 65.9138 34.2119 73.7858C38.2357 75.1854 42.6091 76.0598 46.9825 76.0598C67.7999 76.0598 84.7687 59.091 84.7687 38.2736C84.9426 17.2828 67.9733 0.312439 47.1559 0.312439L47.1573 0.312736ZM35.9614 10.9838C35.6118 11.159 35.4367 11.5086 35.2616 11.6837L34.2121 13.4329L33.1627 11.6837C32.9876 11.3341 32.638 11.159 32.4629 10.9838L30.7137 9.93442L32.4629 9.05949C32.8125 8.88438 32.9876 8.53477 33.1627 8.35966L34.2121 6.61046L35.2616 8.35966C35.4367 8.53477 35.6118 8.88438 35.9614 9.05949L37.7106 10.1089L35.9614 10.9838ZM63.6013 10.9838C63.2517 11.159 63.0766 11.5086 62.9015 11.6837L61.8521 13.4329L60.8027 11.6837C60.6275 11.3341 60.2779 11.159 60.1028 10.9838L58.3536 9.93442L60.1028 8.88499C60.4524 8.70988 60.6275 8.36027 60.8027 8.18516L61.8521 6.43596L62.9015 8.18516C63.0766 8.53477 63.4262 8.70988 63.6013 8.88499L65.3505 9.93442L63.6013 10.9838Z" fill="url(#paint0_linear_896_1594)"/>
<path d="M51.0066 59.7912C61.1531 58.042 69.0251 48.945 69.0251 38.274C69.0251 26.2033 59.2288 16.407 47.158 16.407C35.6119 16.407 26.1657 25.5034 25.291 36.8745C26.3404 36.1747 27.7401 35.8251 28.9647 35.8251C31.0641 35.8251 32.9885 36.7 34.5626 38.2742L48.7323 52.4439C51.1821 54.7184 51.7067 57.8674 51.0068 59.7917L51.0066 59.7912ZM50.3068 35.65L47.8577 34.2503L50.3068 32.8507C50.8315 32.6756 51.1818 32.326 51.3563 31.8013L52.7559 29.3522L54.1555 31.8013C54.5051 32.326 54.6802 32.6762 55.2049 32.8507L57.654 34.2503L55.2049 35.65C54.6802 35.8251 54.33 36.3498 54.1555 36.6994L52.7559 39.1485L51.3563 36.6994C51.0066 36.1747 50.657 35.8245 50.3068 35.65Z" fill="url(#paint1_linear_896_1594)"/>
<path d="M46.9831 60.1413C48.0325 58.5671 48.0325 56.6429 46.2833 54.8929L32.1136 40.7232C29.3143 37.9239 25.991 39.3236 24.5913 42.9972C21.0929 50.869 14.7951 57.5171 6.39796 61.1906C2.7243 62.7647 1.4999 66.0886 4.12394 68.7128L18.2936 82.8825C20.9178 85.5067 24.4162 84.2821 25.8159 80.6085C29.3143 72.9111 35.2624 66.4388 43.3095 62.765C44.8836 61.8907 45.9331 61.7156 46.9832 60.1408L46.9831 60.1413ZM10.7713 67.314C10.0715 68.0138 8.84699 68.0138 8.14709 67.314C7.44726 66.6141 7.44726 65.3897 8.14709 64.6898C8.84691 63.9899 10.0714 63.9899 10.7713 64.6898C11.4705 65.3896 11.4705 66.439 10.7713 67.314ZM16.0191 71.5123C15.4943 72.037 14.7945 72.037 14.2699 71.5123C13.7451 70.9876 13.7451 70.2878 14.2699 69.7631C14.7946 69.2384 15.4944 69.2384 16.0191 69.7631C16.3693 70.2878 16.3693 70.9876 16.0191 71.5123ZM17.0685 60.1413C16.7189 61.0162 15.4944 62.4153 14.6194 61.8905C13.7444 61.3658 14.4443 59.0912 15.1441 58.2168C15.8439 57.3419 16.5437 56.8172 17.0684 56.9923C17.7682 57.5176 17.7683 58.7422 17.0685 60.1413ZM31.0637 43.8722C32.4633 43.8722 33.863 44.2218 33.863 45.0967C33.863 45.7965 32.6385 46.4963 31.2388 46.4963C29.6647 46.4963 28.4395 46.1467 28.4395 45.4469C28.4395 44.7471 29.664 44.0473 31.0637 43.8722ZM24.5909 48.0711C25.1156 47.5464 25.9905 47.5464 26.3401 47.896C26.8648 48.4207 26.8648 49.1205 26.3401 49.6452C26.165 49.8203 25.8154 49.9948 25.4652 49.9948C25.1156 49.9948 24.9405 49.8197 24.5902 49.6452C24.2413 49.1205 24.0662 48.4207 24.5909 48.0711ZM18.8185 61.8911C19.3432 61.3664 20.043 61.3664 20.5677 61.8911C21.0924 62.4158 21.0924 63.1156 20.5677 63.6403C20.2181 63.9899 19.8679 63.9899 19.5183 63.9899C18.4682 63.6403 18.1187 62.591 18.8185 61.8911ZM23.3664 79.5597C22.8416 80.0844 21.6171 79.7348 20.3926 78.8598C19.1681 77.9849 18.6434 76.7604 19.1681 76.2356C19.6928 75.7109 20.9173 76.0605 22.1418 76.9355C23.1919 77.8104 23.7166 79.0348 23.3664 79.5597ZM23.1919 71.3381C22.6671 71.8628 21.9673 71.8628 21.4426 71.3381C20.9179 70.8134 20.9179 70.1136 21.4426 69.5889C21.9674 69.0642 22.6672 69.0642 23.1919 69.5889C23.7166 70.113 23.7166 70.8128 23.1919 71.3381ZM23.7166 55.5939C23.1919 56.1186 22.492 56.1186 21.9674 55.5939C21.4426 55.0691 21.4426 54.3693 21.9674 53.8447C22.4921 53.3199 23.1919 53.3199 23.7166 53.8447C24.2413 54.3694 24.2413 55.0692 23.7166 55.5939ZM24.4164 62.5915C23.8917 62.0667 24.4164 60.8423 25.4658 59.7922C26.5152 58.7427 27.7398 58.2181 28.2651 58.7427C28.7898 59.2675 28.2651 60.4919 27.2157 61.542C26.1656 62.5915 24.9412 63.1161 24.4164 62.5915ZM29.8393 70.2882C28.0901 72.0374 25.6409 69.4133 27.2151 67.664C27.9149 66.9642 29.1394 66.9642 29.8393 67.664C30.5391 68.3638 30.5391 69.5883 29.8393 70.2882ZM30.0144 53.3194C29.4897 52.7947 29.4897 52.0949 30.0144 51.7453C30.5391 51.2205 31.2389 51.2205 31.7636 51.7453C32.2883 52.27 32.2883 52.9698 31.7636 53.4945L31.5885 53.6696C31.0637 53.8447 30.539 53.6696 30.0144 53.3194ZM32.9881 65.215C32.4634 65.7398 31.7636 65.7398 31.2389 65.215C30.7142 64.6903 30.7142 63.9905 31.2389 63.4658C31.7636 62.9411 32.4634 62.9411 32.9881 63.4658C33.5128 63.9905 33.5128 64.6904 32.9881 65.215ZM34.9124 59.6171C34.2126 60.1418 33.1632 59.9667 32.6384 59.442C31.9386 58.7421 31.7635 57.6928 32.6384 56.8178C33.3382 56.118 34.5627 56.118 35.2626 56.8178C35.9618 57.6927 35.7867 59.0923 34.9124 59.6171ZM39.1107 53.6696C38.586 54.1943 37.8862 54.1943 37.3615 53.6696C36.8368 53.1448 36.8368 52.445 37.3615 51.9204C37.8862 51.3956 38.5861 51.3956 39.1107 51.9204C39.6355 52.4451 39.6355 53.1449 39.1107 53.6696ZM42.6098 61.1918C42.0851 61.1918 41.5603 60.492 41.3853 59.2675C41.2102 58.043 41.5604 55.7691 42.6098 55.7691C43.8343 55.7691 44.0094 58.5684 43.6592 59.793C43.4841 60.6673 43.1345 61.192 42.6098 61.192V61.1918Z" fill="url(#paint2_linear_896_1594)"/>
<path d="M7.62163 11.684L8.84615 13.958L10.0707 11.684C10.2452 11.3344 10.4203 10.9841 10.945 10.809L13.219 9.58451L10.945 8.35999C10.4203 8.18549 10.2452 7.83527 9.89557 7.48567L8.67105 5.21118L7.62162 7.48567C7.2714 7.83527 7.09629 8.18549 6.57158 8.35999L4.47266 9.58451L6.57158 10.809C7.09629 10.9841 7.27142 11.3344 7.62163 11.684Z" fill="url(#paint3_linear_896_1594)"/>
<path d="M4.12355 28.1283L5.34808 30.4023L6.5726 28.1283C6.74771 27.7787 7.09731 27.4285 7.44753 27.2534L9.72155 26.0289L7.44753 24.8043C7.09792 24.6292 6.74771 24.2796 6.5726 23.9294L5.34808 21.6554L4.12355 23.9294C3.94845 24.279 3.59884 24.6292 3.24862 24.8043L0.974609 26.0289L3.24862 27.2534C3.59884 27.4285 3.94845 27.7781 4.12355 28.1283Z" fill="url(#paint4_linear_896_1594)"/>
<defs>
<linearGradient id="paint0_linear_896_1594" x1="47.0706" y1="0.312439" x2="26.8137" y2="162.218" gradientUnits="userSpaceOnUse">
<stop stop-color="#FF9900"/>
<stop offset="1" stop-color="#FF9900" stop-opacity="0"/>
</linearGradient>
<linearGradient id="paint1_linear_896_1594" x1="47.158" y1="16.407" x2="35.697" y2="109.175" gradientUnits="userSpaceOnUse">
<stop stop-color="#FF9900"/>
<stop offset="1" stop-color="#FF9900" stop-opacity="0"/>
</linearGradient>
<linearGradient id="paint2_linear_896_1594" x1="25.21" y1="39.2426" x2="13.2012" y2="135.529" gradientUnits="userSpaceOnUse">
<stop stop-color="#FF9900"/>
<stop offset="1" stop-color="#FF9900" stop-opacity="0"/>
</linearGradient>
<linearGradient id="paint3_linear_896_1594" x1="8.84583" y1="5.21118" x2="6.51702" y2="23.9096" gradientUnits="userSpaceOnUse">
<stop stop-color="#FF9900"/>
<stop offset="1" stop-color="#FF9900" stop-opacity="0"/>
</linearGradient>
<linearGradient id="paint4_linear_896_1594" x1="5.34808" y1="21.6554" x2="3.01934" y2="40.3541" gradientUnits="userSpaceOnUse">
<stop stop-color="#FF9900"/>
<stop offset="1" stop-color="#FF9900" stop-opacity="0"/>
</linearGradient>
</defs>
</svg>
