<svg width="76" height="77" viewBox="0 0 76 77" fill="none" xmlns="http://www.w3.org/2000/svg">
<path d="M69.3273 7.71991L70.799 9.84235L71.7609 7.44541C71.8951 7.07845 72.0299 6.71081 72.5316 6.478L74.6541 5.00631L72.2571 4.04439C71.7162 3.9298 71.5029 3.60142 71.1163 3.2932L69.6446 1.1703L68.8567 3.54807C68.5479 3.93473 68.4131 4.30236 67.9113 4.53458L65.9628 5.98664L68.1858 6.96819C68.7268 7.08338 68.9401 7.41176 69.3273 7.71991Z" fill="url(#paint0_linear_896_1603)"/>
<path d="M7.05579 12.6214L8.52748 14.7439L9.4894 12.3469C9.62422 11.9799 9.93237 11.5927 10.2608 11.3794L12.3832 9.90775L9.98625 8.94583C9.61922 8.81101 9.23203 8.50286 9.01877 8.17448L7.54708 6.05204L6.58516 8.44898C6.45034 8.81601 6.14219 9.2032 5.8138 9.41646L3.69137 10.8881L6.0883 11.8501C6.45594 11.9848 6.84253 12.293 7.05579 12.6214Z" fill="url(#paint1_linear_896_1603)"/>
<path d="M64.955 37.3332C63.4308 37.3332 62.124 36.8978 60.8178 36.2444C59.7291 36.8978 58.2049 37.3332 56.6807 37.3332H56.0273C54.5031 37.3332 53.1963 36.8978 51.8901 36.2444C50.8013 36.8978 49.2772 37.3332 47.753 37.3332H47.0996C51.0194 43.2126 56.6807 49.092 59.9471 52.3587C62.3428 54.7543 62.9955 58.4561 61.0359 61.069C59.7292 62.8113 58.2049 65.6423 58.2049 65.6423C57.7695 68.4733 58.8583 70.6509 60.6006 72.1751H8.55465C10.2969 70.6509 11.3857 68.4733 10.9503 65.6423C10.9503 65.6423 9.42609 62.8113 8.11926 61.069C6.1597 58.4561 6.81249 54.5363 9.20806 52.3587C12.4745 49.0923 18.3538 43.2129 22.0556 37.3332H21.4022C19.878 37.3332 18.5712 36.8978 17.2651 36.2444C15.9583 36.8978 14.6521 37.3332 13.1279 37.3332H12.9099C11.3857 37.3332 10.0789 36.8978 8.77276 36.2444C7.68396 36.8978 6.15978 37.3332 4.6356 37.3332H4.19966C2.67548 37.3332 1.36865 36.8978 0.0625 36.2444V76.53H69.7456V36.2444C68.4388 36.8978 67.1326 37.3332 65.6084 37.3332H64.955Z" fill="url(#paint2_linear_896_1603)"/>
<path d="M34.904 6.84778L0.0625 22.091H69.7456L34.904 6.84778Z" fill="url(#paint3_linear_896_1603)"/>
<path d="M0.0632622 26.4461V28.8418C0.0632622 31.0194 1.80548 32.9789 4.20042 32.9789H4.85381C7.03141 32.9789 8.99097 31.2367 8.99097 28.8418C8.99097 31.0194 10.7332 32.9789 13.1281 32.9789H13.7815C15.9591 32.9789 17.9187 31.2367 17.9187 28.8418C17.9187 31.0194 19.6609 32.9789 22.0558 32.9789H22.7092C24.8868 32.9789 26.8464 31.2367 26.8464 28.8418C26.8464 31.0194 28.5886 32.9789 30.9835 32.9789H31.6369C33.8145 32.9789 35.7741 31.2367 35.7741 28.8418C35.7741 31.0194 37.5163 32.9789 39.9113 32.9789H40.5647C42.7422 32.9789 44.7018 31.2367 44.7018 28.8418C44.7018 31.0194 46.444 32.9789 48.839 32.9789H49.4924C51.67 32.9789 53.6295 31.2367 53.6295 28.8418C53.6295 31.0194 55.3717 32.9789 57.7667 32.9789H58.4201C60.5977 32.9789 62.5572 31.2367 62.5572 28.8418C62.5572 31.0194 64.2994 32.9789 66.6944 32.9789H67.3478C69.5254 32.9789 71.4849 31.2367 71.4849 28.8418V26.4461H0.0625H0.0632622Z" fill="url(#paint4_linear_896_1603)"/>
<defs>
<linearGradient id="paint0_linear_896_1603" x1="69.8183" y1="1.1507" x2="69.5999" y2="19.9923" gradientUnits="userSpaceOnUse">
<stop stop-color="#FF9900"/>
<stop offset="1" stop-color="#FF9900" stop-opacity="0"/>
</linearGradient>
<linearGradient id="paint1_linear_896_1603" x1="7.54708" y1="6.05204" x2="7.32885" y2="24.8939" gradientUnits="userSpaceOnUse">
<stop stop-color="#FF9900"/>
<stop offset="1" stop-color="#FF9900" stop-opacity="0"/>
</linearGradient>
<linearGradient id="paint2_linear_896_1603" x1="34.904" y1="36.2444" x2="28.6397" y2="123.249" gradientUnits="userSpaceOnUse">
<stop stop-color="#FF9900"/>
<stop offset="1" stop-color="#FF9900" stop-opacity="0"/>
</linearGradient>
<linearGradient id="paint3_linear_896_1603" x1="34.904" y1="6.84778" x2="34.0032" y2="39.9147" gradientUnits="userSpaceOnUse">
<stop stop-color="#FF9900"/>
<stop offset="1" stop-color="#FF9900" stop-opacity="0"/>
</linearGradient>
<linearGradient id="paint4_linear_896_1603" x1="35.7737" y1="26.4461" x2="35.6122" y2="40.6263" gradientUnits="userSpaceOnUse">
<stop stop-color="#FF9900"/>
<stop offset="1" stop-color="#FF9900" stop-opacity="0"/>
</linearGradient>
</defs>
</svg>
