<svg width="68" height="65" viewBox="0 0 68 65" fill="none" xmlns="http://www.w3.org/2000/svg">
<path d="M63.5202 5.18012L64.5003 7L65.4803 5.18012C65.6199 4.90033 65.7601 4.62006 66.18 4.47992L68 3.49994L66.18 2.51997C65.7601 2.38032 65.6199 2.10004 65.3401 1.82025L64.3601 0L63.5202 1.82025C63.2399 2.10004 63.0998 2.38032 62.6798 2.51997L61 3.49994L62.6798 4.47992C63.0998 4.62006 63.2399 4.90033 63.5202 5.18012Z" fill="url(#paint0_linear_896_1610)"/>
<path d="M49.1489 11.4729L50.3735 13.7469L51.598 11.4729C51.7731 11.1233 52.1227 10.7731 52.4729 10.598L54.7469 9.37347L52.4729 8.14895C52.1233 7.97384 51.7731 7.62423 51.598 7.27402L50.3735 5L49.1489 7.27402C48.9738 7.62362 48.6242 7.97384 48.274 8.14895L46 9.37347L48.274 10.598C48.6242 10.7731 48.9738 11.1227 49.1489 11.4729Z" fill="url(#paint1_linear_896_1610)"/>
<path d="M24.856 42.8284L22.3329 44.2779C20.9372 45.083 19.2192 45.459 17.5015 45.459C15.7834 45.459 14.0657 45.083 12.6701 44.2779L11.5965 43.6338C11.543 43.8484 11.543 44.0634 11.543 44.2779C11.543 50.5054 16.6429 55.6053 22.8703 55.6053C29.0974 55.6053 34.1977 50.5589 34.1977 44.3316C34.1977 43.7411 34.1442 43.1506 34.0367 42.56C31.2989 41.2183 27.4872 41.2718 24.8565 42.8285L24.856 42.8284Z" fill="url(#paint2_linear_896_1610)"/>
<path d="M43.7525 14H1.98622C0.912632 14 0 14.859 0 15.9326V63.0674C0 64.141 0.912584 65 1.98622 65H43.7525C44.8261 65 45.6852 64.141 45.6852 63.0674V15.9326C45.7387 14.859 44.8261 14 43.7525 14ZM27.6473 20.0664C27.6473 19.7444 27.9158 19.4759 28.2378 19.4759H29.8484C30.1705 19.4759 30.439 19.7444 30.439 20.0664V21.7305C30.439 22.0526 30.1705 22.3211 29.8484 22.3211H28.2378C27.9158 22.3211 27.6473 22.0526 27.6473 21.7305V20.0664ZM21.4738 20.0664C21.4738 19.7444 21.7423 19.4759 22.0643 19.4759H23.7284C24.0505 19.4759 24.319 19.7444 24.319 20.0664V21.7305C24.319 22.0526 24.0505 22.3211 23.7284 22.3211H22.0643C21.7423 22.3211 21.4738 22.0526 21.4738 21.7305V20.0664ZM15.2999 20.0664C15.2999 19.7444 15.5684 19.4759 15.8904 19.4759H17.5011C17.8231 19.4759 18.0916 19.7444 18.0916 20.0664V21.7305C18.0916 22.0526 17.8231 22.3211 17.5011 22.3211H15.8904C15.5684 22.3211 15.2999 22.0526 15.2999 21.7305V20.0664ZM5.90517 20.9251C5.90517 19.4219 7.13981 18.1873 8.64297 18.1873C10.1461 18.1873 11.3808 19.4219 11.3808 20.9251C11.3808 22.4282 10.1461 23.6629 8.64297 23.6629C7.14019 23.6632 5.90517 22.4286 5.90517 20.9251ZM22.8694 57.9135C15.3538 57.9135 9.28727 51.8475 9.28727 44.3314C9.28727 36.8158 15.3537 30.6956 22.8694 30.6956C30.3851 30.6956 36.4515 36.8156 36.4515 44.3314C36.4515 51.8474 30.3851 57.9135 22.8694 57.9135ZM37.1494 23.6093C35.6462 23.6093 34.4116 22.3746 34.4116 20.8715C34.4116 19.3683 35.6462 18.1337 37.1494 18.1337C38.6525 18.1337 39.8872 19.3683 39.8872 20.8715C39.8336 22.4285 38.6525 23.6093 37.1494 23.6093Z" fill="url(#paint3_linear_896_1610)"/>
<defs>
<linearGradient id="paint0_linear_896_1610" x1="64.5" y1="-2.78271e-08" x2="62.6364" y2="14.9642" gradientUnits="userSpaceOnUse">
<stop stop-color="#FF9900"/>
<stop offset="1" stop-color="#FF9900" stop-opacity="0"/>
</linearGradient>
<linearGradient id="paint1_linear_896_1610" x1="50.3735" y1="5" x2="48.0447" y2="23.6987" gradientUnits="userSpaceOnUse">
<stop stop-color="#FF9900"/>
<stop offset="1" stop-color="#FF9900" stop-opacity="0"/>
</linearGradient>
<linearGradient id="paint2_linear_896_1610" x1="22.8703" y1="41.604" x2="20.5446" y2="71.8204" gradientUnits="userSpaceOnUse">
<stop stop-color="#FF9900"/>
<stop offset="1" stop-color="#FF9900" stop-opacity="0"/>
</linearGradient>
<linearGradient id="paint3_linear_896_1610" x1="22.8437" y1="14" x2="7.74363" y2="122.617" gradientUnits="userSpaceOnUse">
<stop stop-color="#FF9900"/>
<stop offset="1" stop-color="#FF9900" stop-opacity="0"/>
</linearGradient>
</defs>
</svg>
