<svg width="63" height="72" viewBox="0 0 63 72" fill="none" xmlns="http://www.w3.org/2000/svg">
<path d="M57.4991 71.2587H3.89661C3.49023 71.2587 3.16016 70.9291 3.16016 70.5222V66.0582C3.16016 65.6512 3.49023 65.3217 3.89661 65.3217H57.4991C57.6947 65.3217 57.8824 65.3992 58.0203 65.5371C58.1582 65.6755 58.2362 65.8626 58.2362 66.0582V70.5222C58.2362 70.7172 58.1582 70.9049 58.0203 71.0428C57.8824 71.1812 57.6947 71.2587 57.4991 71.2587ZM4.63164 69.7851L56.7627 69.7857V66.7946H4.63309L4.63164 69.7851Z" fill="url(#paint0_linear_896_1565)"/>
<path d="M13.5605 18.7696H29.957V28.4634H13.5605V18.7696Z" fill="url(#paint1_linear_896_1565)"/>
<path d="M13.5605 29.9344H29.957V39.6282H13.5605V29.9344Z" fill="url(#paint2_linear_896_1565)"/>
<path d="M31.4316 18.7696H47.8281V28.4634H31.4316V18.7696Z" fill="url(#paint3_linear_896_1565)"/>
<path d="M13.5605 41.1017H29.957V50.7955H13.5605V41.1017Z" fill="url(#paint4_linear_896_1565)"/>
<path d="M31.4316 41.1017H47.8281V50.7955H31.4316V41.1017Z" fill="url(#paint5_linear_896_1565)"/>
<path d="M31.4316 17.2946H47.8281V9.38347C42.5446 7.57989 37.013 6.6077 31.4316 6.50323V17.2946Z" fill="url(#paint6_linear_896_1565)"/>
<path d="M29.959 17.2946V6.50323C24.3771 6.60836 18.8453 7.58051 13.5625 9.38347V17.2946H29.959Z" fill="url(#paint7_linear_896_1565)"/>
<path d="M53.3001 5.06711C39.039 -0.641418 24.586 -0.929065 10.2963 4.22722C10.7179 4.42447 11.1786 4.52508 11.6443 4.52226C12.4316 4.52282 13.1591 4.94276 13.5535 5.6244C13.948 6.30603 13.9503 7.14598 13.5591 7.82922C19.0856 5.99004 24.8688 5.04057 30.6921 5.01569C36.8608 5.04564 42.9808 6.10879 48.7988 8.161C49.0961 8.26104 49.2973 8.53912 49.2996 8.85338V34.0529H49.6975C50.1045 34.0529 50.434 34.3824 50.434 34.7894C50.434 35.1963 50.1045 35.5258 49.6975 35.5258H49.3216V42.3326C49.7348 41.8702 50.3226 41.6034 50.942 41.5955C51.3693 41.5944 51.7927 41.5096 52.1872 41.3451C52.6439 41.1637 53.0525 40.8788 53.3803 40.5126C53.5375 40.3351 53.6737 40.1401 53.7856 39.931V5.75189C53.7822 5.44442 53.5883 5.17143 53.2995 5.06686L53.3001 5.06711ZM53.2187 46.9511C52.9243 46.656 52.5739 46.4232 52.1878 46.266C51.7865 46.0987 51.3558 46.0139 50.9206 46.0156C50.3012 46.0083 49.7134 45.741 49.3002 45.2792V61.5946C49.3002 61.7902 49.2228 61.9773 49.0843 62.1158C48.9464 62.2537 48.7588 62.3311 48.5638 62.3311H12.8234C12.4165 62.3311 12.087 62.0016 12.087 61.5947V8.90512C11.9412 8.93507 11.7931 8.94977 11.645 8.9492C10.7876 8.95712 9.96743 9.30076 9.36161 9.90722C8.75515 10.5131 8.4115 11.3332 8.40359 12.1906C8.40189 12.8378 8.11646 13.4516 7.62305 13.8698V66.0586C7.62305 66.2542 7.70048 66.4413 7.83896 66.5798C7.97687 66.7177 8.16451 66.7951 8.35951 66.7951H53.0273C53.2223 66.7951 53.41 66.7177 53.5479 66.5798C53.6864 66.4413 53.7638 66.2542 53.7638 66.0586V47.6871C53.6197 47.4158 53.436 47.1677 53.2184 46.9507L53.2187 46.9511Z" fill="url(#paint8_linear_896_1565)"/>
<path d="M45.9495 35.7326C45.9495 36.1396 45.62 36.4697 45.213 36.4697C44.8061 36.4697 44.4766 36.1396 44.4766 35.7326V33.6922C44.4766 33.2852 44.8061 32.9557 45.213 32.9557C45.62 32.9557 45.9495 33.2852 45.9495 33.6922V34.0681H47.8276L47.8281 29.9354H31.4316V39.6297H47.8281V35.519H45.9494L45.9495 35.7326Z" fill="url(#paint9_linear_896_1565)"/>
<path d="M13.5605 52.27H29.957V60.8515H13.5605V52.27Z" fill="url(#paint10_linear_896_1565)"/>
<path d="M31.4316 52.27H47.8281V60.8515H31.4316V52.27Z" fill="url(#paint11_linear_896_1565)"/>
<path d="M12.3824 6.73183C12.3824 6.92739 12.305 7.11503 12.1665 7.25295C12.0286 7.39086 11.8409 7.46886 11.6459 7.46886C10.3974 7.47451 9.20137 7.97302 8.31861 8.85586C7.43584 9.7387 6.93725 10.9346 6.93161 12.1832C6.93161 12.5896 6.60154 12.9196 6.19515 12.9196C5.78821 12.9196 5.45812 12.5896 5.45812 12.1832C5.46434 10.9296 4.96866 9.72575 4.08129 8.84009C3.19449 7.95498 1.99006 7.461 0.736452 7.4689C0.330071 7.4689 0 7.13883 0 6.73187C0 6.32549 0.330071 5.99542 0.736452 5.99542C2.09689 5.99994 3.39227 5.41439 4.28705 4.38963C5.03989 3.52883 5.45588 2.42442 5.45815 1.28107C5.45815 0.874124 5.78822 0.544617 6.19518 0.544617C6.60156 0.544617 6.93163 0.874124 6.93163 1.28107C6.92768 2.42561 7.3448 3.53233 8.10274 4.38963L8.30904 4.61797C8.48369 4.79432 8.67303 4.95426 8.87595 5.09669C9.67967 5.6845 10.6502 5.99933 11.6461 5.99536C12.053 5.99536 12.3824 6.32545 12.3824 6.73183Z" fill="url(#paint12_linear_896_1565)"/>
<path d="M62.568 43.8283C62.568 44.0238 62.4905 44.2109 62.352 44.3494C62.2141 44.4873 62.0265 44.5647 61.8315 44.5647C60.5824 44.5647 59.3842 45.0604 58.5002 45.9433C57.6168 46.8256 57.1189 48.0232 57.1172 49.2718C57.1172 49.6787 56.7871 50.0088 56.3807 50.0088C55.9738 50.0088 55.6437 49.6787 55.6437 49.2718C55.6482 48.342 55.3752 47.4314 54.8592 46.6572C54.3437 45.8834 53.609 45.2804 52.7487 44.9259C52.1694 44.6869 51.5488 44.5642 50.922 44.5648C50.5151 44.5648 50.1855 44.2353 50.1855 43.8283C50.1855 43.4214 50.5151 43.0919 50.922 43.0919C52.1728 43.0902 53.3711 42.5928 54.2561 41.7094C55.1412 40.826 55.6397 39.6277 55.6437 38.3776C55.6437 37.9706 55.9738 37.6411 56.3807 37.6411C56.7871 37.6411 57.1172 37.9706 57.1172 38.3776C57.1121 39.5204 57.5292 40.6242 58.2883 41.4789L58.4725 41.6852C59.3576 42.5861 60.5683 43.0937 61.8316 43.092C62.0266 43.092 62.2142 43.1694 62.3521 43.3079C62.4906 43.4458 62.568 43.6335 62.568 43.8285L62.568 43.8283Z" fill="url(#paint13_linear_896_1565)"/>
<defs>
<linearGradient id="paint0_linear_896_1565" x1="30.6982" y1="65.3217" x2="30.5252" y2="78.208" gradientUnits="userSpaceOnUse">
<stop stop-color="#FF9900"/>
<stop offset="1" stop-color="#FF9900" stop-opacity="0"/>
</linearGradient>
<linearGradient id="paint1_linear_896_1565" x1="21.7588" y1="18.7696" x2="20.2177" y2="39.7003" gradientUnits="userSpaceOnUse">
<stop stop-color="#FF9900"/>
<stop offset="1" stop-color="#FF9900" stop-opacity="0"/>
</linearGradient>
<linearGradient id="paint2_linear_896_1565" x1="21.7588" y1="29.9344" x2="20.2177" y2="50.8651" gradientUnits="userSpaceOnUse">
<stop stop-color="#FF9900"/>
<stop offset="1" stop-color="#FF9900" stop-opacity="0"/>
</linearGradient>
<linearGradient id="paint3_linear_896_1565" x1="39.6299" y1="18.7696" x2="38.0888" y2="39.7003" gradientUnits="userSpaceOnUse">
<stop stop-color="#FF9900"/>
<stop offset="1" stop-color="#FF9900" stop-opacity="0"/>
</linearGradient>
<linearGradient id="paint4_linear_896_1565" x1="21.7588" y1="41.1017" x2="20.2177" y2="62.0325" gradientUnits="userSpaceOnUse">
<stop stop-color="#FF9900"/>
<stop offset="1" stop-color="#FF9900" stop-opacity="0"/>
</linearGradient>
<linearGradient id="paint5_linear_896_1565" x1="39.6299" y1="41.1017" x2="38.0888" y2="62.0325" gradientUnits="userSpaceOnUse">
<stop stop-color="#FF9900"/>
<stop offset="1" stop-color="#FF9900" stop-opacity="0"/>
</linearGradient>
<linearGradient id="paint6_linear_896_1565" x1="39.6299" y1="6.50323" x2="37.7225" y2="29.774" gradientUnits="userSpaceOnUse">
<stop stop-color="#FF9900"/>
<stop offset="1" stop-color="#FF9900" stop-opacity="0"/>
</linearGradient>
<linearGradient id="paint7_linear_896_1565" x1="21.7607" y1="6.50323" x2="19.8533" y2="29.774" gradientUnits="userSpaceOnUse">
<stop stop-color="#FF9900"/>
<stop offset="1" stop-color="#FF9900" stop-opacity="0"/>
</linearGradient>
<linearGradient id="paint8_linear_896_1565" x1="30.7043" y1="0.561889" x2="5.8065" y2="139.899" gradientUnits="userSpaceOnUse">
<stop stop-color="#FF9900"/>
<stop offset="1" stop-color="#FF9900" stop-opacity="0"/>
</linearGradient>
<linearGradient id="paint9_linear_896_1565" x1="39.6299" y1="29.9354" x2="38.0886" y2="50.8674" gradientUnits="userSpaceOnUse">
<stop stop-color="#FF9900"/>
<stop offset="1" stop-color="#FF9900" stop-opacity="0"/>
</linearGradient>
<linearGradient id="paint10_linear_896_1565" x1="21.7588" y1="52.27" x2="20.5496" y2="70.8208" gradientUnits="userSpaceOnUse">
<stop stop-color="#FF9900"/>
<stop offset="1" stop-color="#FF9900" stop-opacity="0"/>
</linearGradient>
<linearGradient id="paint11_linear_896_1565" x1="39.6299" y1="52.27" x2="38.4207" y2="70.8208" gradientUnits="userSpaceOnUse">
<stop stop-color="#FF9900"/>
<stop offset="1" stop-color="#FF9900" stop-opacity="0"/>
</linearGradient>
<linearGradient id="paint12_linear_896_1565" x1="6.19126" y1="0.544617" x2="2.89853" y2="26.9998" gradientUnits="userSpaceOnUse">
<stop stop-color="#FF9900"/>
<stop offset="1" stop-color="#FF9900" stop-opacity="0"/>
</linearGradient>
<linearGradient id="paint13_linear_896_1565" x1="56.3768" y1="37.6411" x2="53.0879" y2="64.081" gradientUnits="userSpaceOnUse">
<stop stop-color="#FF9900"/>
<stop offset="1" stop-color="#FF9900" stop-opacity="0"/>
</linearGradient>
</defs>
</svg>
