<svg width="94" height="74" viewBox="0 0 94 74" fill="none" xmlns="http://www.w3.org/2000/svg">
<path d="M3.32864 69.6792H54.2799L54.2794 52.9067H3.32812L3.32864 69.6792ZM28.8043 57.2971C30.2555 57.2971 31.4311 58.4738 31.4311 59.924C31.4311 61.3751 30.2544 62.5508 28.8043 62.5508C27.3531 62.5508 26.1774 61.3741 26.1774 59.924C26.1774 58.4738 27.3531 57.2971 28.8043 57.2971Z" fill="url(#paint0_linear_896_1528)"/>
<path d="M42.4281 37.9216C41.5471 37.6948 40.9443 37.0981 40.7303 36.2425C40.5863 35.6692 40.6718 35.1124 40.9675 34.611H3.32812V51.3835H54.2794L54.2789 42.0412C53.3094 41.8837 52.6164 41.4533 52.1819 41.0758C52.0695 40.9779 51.912 40.9603 51.796 41.0364C50.8239 41.6755 49.8482 41.8988 48.9796 41.6874C48.2705 41.5155 47.6858 41.0628 47.2875 40.3776C47.2212 40.2642 47.1171 40.2238 47.0617 40.2103C47.0125 40.1984 46.9104 40.186 46.8131 40.2476C45.4344 41.1193 44.4457 40.9339 43.8583 40.6226C43.0006 40.1684 42.5671 39.3298 42.636 38.2609C42.6453 38.1252 42.5837 37.9626 42.4278 37.9212L42.4281 37.9216ZM28.8046 46.9942C27.3534 46.9942 26.1777 45.8174 26.1777 44.3673C26.1777 42.9161 27.3544 41.7405 28.8046 41.7405C30.2558 41.7405 31.4314 42.9172 31.4314 44.3673C31.4314 45.8174 30.2557 46.9942 28.8046 46.9942Z" fill="url(#paint1_linear_896_1528)"/>
<path d="M55.7995 70.4388C55.7995 70.8588 55.4597 71.1991 55.0392 71.1991L2.56707 71.1996C2.14651 71.1996 1.80675 70.8588 1.80675 70.4393V33.8514C1.80675 33.4313 2.14651 33.091 2.56707 33.091H41.7683C41.614 32.7067 41.4861 32.2209 41.4679 31.6507L0.25 31.6502V72.6401H57.3561V41.6183C56.8734 41.8389 56.3544 41.9901 55.7992 42.0585L55.7995 70.4388Z" fill="url(#paint2_linear_896_1528)"/>
<path d="M92.7231 70.9689L71.0951 42.5126L68.3418 44.5874L89.9777 73.0542C90.247 73.4085 90.6385 73.6369 91.0798 73.697C91.5216 73.7566 91.9592 73.6416 92.3135 73.3723L92.4031 73.3039H92.4036C92.7589 73.0346 92.9868 72.643 93.0469 72.2018C93.1075 71.7605 92.9925 71.3218 92.7227 70.968L92.7231 70.9689Z" fill="url(#paint3_linear_896_1528)"/>
<path d="M69.0009 39.7576L66.2559 41.8437L67.4212 43.3772L70.1745 41.3025L69.0009 39.7576Z" fill="url(#paint4_linear_896_1528)"/>
<path d="M60.5688 31.3072C60.9044 31.056 61.3824 31.1275 61.6321 31.4652L67.3152 39.1279L68.1175 38.5178C66.6688 36.2855 65.6755 33.6456 65.171 30.6489C65.1011 30.235 65.3807 29.8425 65.7946 29.7725C66.2146 29.7042 66.6015 29.9823 66.6709 30.3971C67.1251 33.0997 67.9984 35.4822 69.2651 37.4994C69.9664 36.7236 70.8266 35.5054 70.747 34.4463C70.7029 33.876 70.4958 33.4394 70.1125 33.1116C69.3496 32.4591 69.2605 31.3015 69.9141 30.5303C70.2746 30.1051 70.4709 29.6151 70.4989 29.0728C70.5377 28.3167 70.0814 27.617 69.6919 27.1648C69.3589 26.7779 69.2066 26.2833 69.2631 25.7731C69.3196 25.2614 69.5889 24.7906 70.0017 24.4809C70.3342 24.2328 70.5097 23.9148 70.5419 23.5087C70.5579 23.3021 70.5367 22.9846 70.1622 22.6205C69.7888 22.2564 69.5873 21.7711 69.5956 21.2536C69.6034 20.7388 69.8282 20.2421 70.2125 19.89C70.3554 19.7589 70.432 19.6139 70.4538 19.4326C70.4963 19.0898 70.2285 18.7925 69.6598 18.5475C69.0238 18.2745 68.5996 17.653 68.5509 16.9259C68.5157 16.3821 68.2764 16.0019 67.8186 15.7637C67.1691 15.4229 66.4911 15.6487 66.0374 15.8973C65.4837 16.1998 64.7959 16.1894 64.2417 15.8663C63.8082 15.6145 63.1536 15.3551 62.5083 15.5493C62.0686 15.6819 61.6931 16.0361 61.3901 16.6002C60.9172 17.4837 59.8052 17.8245 58.9097 17.3605C58.2981 17.0435 57.6517 16.9399 56.9913 17.0492C56.0575 17.2051 55.4966 17.7671 55.191 18.2114C54.7461 18.8588 53.9604 19.1597 53.1897 18.9764C52.7552 18.8723 52.3942 18.9355 52.0839 19.1665C51.8229 19.3602 51.6634 19.7004 51.6111 20.1775C51.5028 21.1434 50.7073 21.8598 49.7507 21.8607C49.7279 21.8607 49.7025 21.8607 49.6839 21.8602C49.4094 21.8602 49.2131 21.9508 49.0489 22.1507C48.8915 22.3439 48.8319 22.5879 48.8676 22.8955C48.9246 23.3906 48.7718 23.8951 48.4476 24.2799C48.1218 24.6668 47.6484 24.9066 47.1461 24.9356C46.5955 24.9677 46.1931 25.1738 45.9155 25.5633C45.5912 26.0196 45.5115 26.5991 45.6772 27.2859C45.7912 27.7587 45.7093 28.2699 45.4514 28.6873C45.193 29.1058 44.7895 29.3969 44.3161 29.5057C43.6988 29.6486 43.3093 30.0117 43.1249 30.6161C42.9042 31.3402 42.9431 32.029 43.2399 32.665C43.6195 33.4766 43.3864 34.4213 42.6738 34.9609C42.088 35.4043 42.1735 35.7445 42.205 35.872C42.2605 36.0941 42.376 36.336 42.8084 36.4479C43.6475 36.6654 44.2131 37.4692 44.1545 38.359C44.1151 38.9567 44.357 39.1639 44.5704 39.2768C44.9925 39.4995 45.5798 39.2276 46.0009 38.9603C46.425 38.6921 46.93 38.6102 47.4246 38.7314C47.9182 38.8521 48.3481 39.1732 48.6029 39.6124C48.793 39.9392 49.0333 40.134 49.3389 40.2085C49.9132 40.3479 50.5368 40.0428 50.9626 39.7636C51.6457 39.3167 52.5567 39.385 53.1804 39.9273C53.6822 40.3629 54.3074 40.5845 55.0393 40.5845C55.7405 40.5845 56.3709 40.4395 56.9131 40.151C57.7247 39.7206 58.7213 39.9496 59.2791 40.6985C59.724 41.2931 60.2688 41.6996 60.8981 41.9053C61.7988 42.1995 63.0785 41.8177 63.9767 41.4381C62.1785 39.3566 60.3123 37.7593 57.5425 36.7722C57.1468 36.6313 56.9407 36.1962 57.0816 35.8011C57.223 35.4048 57.6549 35.1977 58.0537 35.3401C61.2261 36.4702 63.2972 38.2886 65.3052 40.654L66.1054 40.0465L60.4118 32.3702C60.1607 32.0341 60.2311 31.5576 60.5688 31.3069V31.3072Z" fill="url(#paint5_linear_896_1528)"/>
<path d="M16.7023 26.57C17.5233 26.57 18.2934 26.3654 18.8714 25.9935C19.0402 25.8848 19.2463 25.8469 19.4426 25.8894C19.7969 25.9656 20.1165 26.0018 20.4179 26.0018C22.1587 26.0018 23.3726 25.1011 23.3726 24.2926C23.3726 23.7441 22.8454 23.2003 21.996 22.8735C21.8059 22.8 21.6521 22.6523 21.5718 22.4643C21.491 22.2763 21.4889 22.0645 21.5666 21.875C21.6272 21.7258 21.6557 21.6108 21.6557 21.5129C21.6557 20.7044 20.4417 19.8037 18.701 19.8037C16.9602 19.8037 15.7462 20.7044 15.7462 21.5129C15.7462 21.7082 15.8223 21.9138 15.9715 22.1236C16.116 22.3276 16.1517 22.5897 16.0668 22.8248C15.9819 23.06 15.7861 23.2376 15.5437 23.3008C14.4856 23.5763 13.748 24.2175 13.748 24.8598C13.7475 25.6693 14.9611 26.57 16.7023 26.57Z" fill="url(#paint6_linear_896_1528)"/>
<path d="M41.3695 14.1467C41.5581 14.1887 41.7378 14.2456 41.9134 14.3088C42.5639 13.8489 42.956 13.1026 42.956 12.291C42.956 10.9278 41.8471 9.81885 40.4838 9.81885C39.1206 9.81885 38.0117 10.9277 38.0117 12.291C38.0117 12.32 38.0164 12.3479 38.0179 12.3769C39.4392 12.4028 40.7055 13.0782 41.3694 14.1467L41.3695 14.1467Z" fill="url(#paint7_linear_896_1528)"/>
<path d="M32.3906 19.0442C32.3906 19.9174 33.1872 20.685 34.2847 20.8678C34.6902 20.9357 34.9678 21.3138 34.9129 21.7214L34.8969 21.8249C34.8922 21.8555 34.885 21.885 34.8839 21.9156C34.8839 22.9431 35.9571 23.7796 37.2768 23.7796C38.3437 23.7796 39.2884 23.2094 39.5727 22.3921C39.6876 22.0611 40.0176 21.8498 40.3615 21.8851L40.477 21.897C40.5293 21.9032 40.5826 21.9104 40.6375 21.9104C41.9561 21.9104 43.0293 21.0729 43.0293 20.0449C43.0293 19.6896 42.8946 19.3405 42.6414 19.0365C42.4368 18.7915 42.4073 18.4456 42.5663 18.1695C42.7102 17.9199 42.7833 17.6666 42.7833 17.418C42.7833 16.522 41.9209 15.7348 40.7784 15.5867C40.5173 15.553 40.2926 15.3867 40.1838 15.148C39.8425 14.398 38.9387 13.8946 37.9355 13.8946C36.6169 13.8946 35.5437 14.7321 35.5437 15.7612C35.5437 15.8876 35.5686 16.0274 35.6235 16.1999C35.697 16.435 35.653 16.6903 35.5049 16.8866C35.3567 17.0835 35.118 17.2083 34.8766 17.1886C34.8538 17.1881 34.7762 17.1818 34.7534 17.1787C33.4637 17.1777 32.3906 18.0151 32.3906 19.0442Z" fill="url(#paint8_linear_896_1528)"/>
<path d="M73.5639 5.40741C73.6235 5.22924 73.6546 5.04228 73.6546 4.84909C73.6546 3.87539 72.8621 3.08301 71.8885 3.08301C71.122 3.08301 70.4539 3.58022 70.1953 4.25403C70.8479 4.44048 71.4337 4.77972 71.8614 5.26399C72.4208 5.14487 73.0087 5.20646 73.5639 5.40741Z" fill="url(#paint9_linear_896_1528)"/>
<path d="M66.911 9.89549C66.81 10.748 67.6009 11.545 68.6746 11.673C68.903 11.7004 69.1361 11.6896 69.3893 11.6424C69.4375 11.6331 69.4836 11.6295 69.5307 11.6295C69.8653 11.6295 70.1698 11.8517 70.2626 12.1852C70.4521 12.8611 71.141 13.3832 71.9784 13.4821C72.5186 13.5458 73.0464 13.4318 73.4586 13.1574C73.8326 12.9087 74.0641 12.5571 74.1096 12.1671C74.1583 11.7558 73.9765 11.4125 73.8155 11.1975C73.5643 10.8629 73.6321 10.3875 73.9651 10.1358C74.6338 9.63079 74.7001 8.55451 74.1164 7.68592C73.5663 6.86759 72.6118 6.50764 71.8939 6.84637C71.534 7.01729 71.1062 6.88158 70.9083 6.53613C70.5867 5.97315 69.8885 5.6106 69.1287 5.6106C68.0473 5.6106 67.1673 6.30979 67.1673 7.16799C67.1673 7.46164 67.2745 7.7491 67.477 8.0008C67.7324 8.31777 67.6925 8.78028 67.3859 9.04961C67.1963 9.21793 66.9581 9.50072 66.9109 9.89538L66.911 9.89549Z" fill="url(#paint10_linear_896_1528)"/>
<path d="M22.9058 16.174C23.4646 16.174 23.9204 15.7183 23.9204 15.1594C23.9204 14.5995 23.4646 14.1443 22.9058 14.1443C22.3459 14.1443 21.8906 14.6001 21.8906 15.1594C21.8906 15.7183 22.3459 16.174 22.9058 16.174Z" fill="url(#paint11_linear_896_1528)"/>
<path d="M32.7905 10.6964C33.3494 10.6964 33.8051 10.2406 33.8051 9.68179C33.8051 9.12295 33.3494 8.66718 32.7905 8.66718C32.2306 8.66718 31.7754 9.12295 31.7754 9.68179C31.7749 10.2412 32.2306 10.6964 32.7905 10.6964Z" fill="url(#paint12_linear_896_1528)"/>
<path d="M78.3623 2.45845C78.9221 2.45845 79.3774 2.00268 79.3774 1.44332C79.3774 0.883438 78.9216 0.428711 78.3623 0.428711C77.8034 0.428711 77.3477 0.884486 77.3477 1.44332C77.3477 2.00372 77.8034 2.45845 78.3623 2.45845Z" fill="url(#paint13_linear_896_1528)"/>
<path d="M13.4049 16.2214C13.8348 16.2214 14.1828 15.8729 14.1828 15.4425C14.1828 15.0126 13.8342 14.6646 13.4049 14.6646C12.975 14.6646 12.627 15.0131 12.627 15.4425C12.6259 15.8729 12.974 16.2214 13.4049 16.2214Z" fill="url(#paint14_linear_896_1528)"/>
<path d="M30.3923 24.7223C30.3923 25.1521 30.0437 25.5007 29.6144 25.5007C29.1845 25.5007 28.8359 25.1521 28.8359 24.7223C28.8359 24.2929 29.1845 23.9443 29.6144 23.9443C30.0437 23.9443 30.3923 24.2929 30.3923 24.7223Z" fill="url(#paint15_linear_896_1528)"/>
<path d="M28.3254 7.17832C28.3254 7.6082 27.9773 7.95624 27.5475 7.95624C27.1176 7.95624 26.7695 7.6082 26.7695 7.17832C26.7695 6.74844 27.1176 6.40039 27.5475 6.40039C27.9773 6.40039 28.3254 6.74844 28.3254 7.17832Z" fill="url(#paint16_linear_896_1528)"/>
<path d="M47.3981 15.4431C47.828 15.4431 48.176 15.0945 48.176 14.6651C48.176 14.2352 47.8275 13.8862 47.3981 13.8862C46.9682 13.8862 46.6191 14.2347 46.6191 14.6651C46.6202 15.0945 46.9687 15.4431 47.3981 15.4431Z" fill="url(#paint17_linear_896_1528)"/>
<path d="M52.1833 5.91913C52.6131 5.91913 52.9612 5.57057 52.9612 5.14121C52.9612 4.71133 52.6126 4.36328 52.1833 4.36328C51.7534 4.36328 51.4043 4.71184 51.4043 5.14121C51.4043 5.57109 51.7534 5.91913 52.1833 5.91913Z" fill="url(#paint18_linear_896_1528)"/>
<path d="M60.4363 11.1606C60.4363 11.5909 60.0877 11.9395 59.6573 11.9395C59.2275 11.9395 58.8789 11.5909 58.8789 11.1606C58.8789 10.7307 59.2275 10.3816 59.6573 10.3816C60.0877 10.3816 60.4363 10.7307 60.4363 11.1606Z" fill="url(#paint19_linear_896_1528)"/>
<path d="M77.7595 18.5568C77.7595 18.9862 77.4109 19.3348 76.9816 19.3348C76.5517 19.3348 76.2031 18.9862 76.2031 18.5568C76.2031 18.1269 76.5517 17.7784 76.9816 17.7784C77.4109 17.7784 77.7595 18.1269 77.7595 18.5568Z" fill="url(#paint20_linear_896_1528)"/>
<path d="M79.0547 9.05747C79.0547 9.48735 79.4033 9.8354 79.8326 9.8354C80.2625 9.8354 80.6116 9.48683 80.6116 9.05747C80.6116 8.62759 80.263 8.27954 79.8326 8.27954C79.4033 8.27851 79.0547 8.62811 79.0547 9.05747Z" fill="url(#paint21_linear_896_1528)"/>
<path d="M63.7141 2.20957C63.7141 2.63945 63.366 2.98801 62.9361 2.98801C62.5063 2.98801 62.1582 2.63945 62.1582 2.20957C62.1582 1.7802 62.5063 1.43164 62.9361 1.43164C63.366 1.43164 63.7141 1.7802 63.7141 2.20957Z" fill="url(#paint22_linear_896_1528)"/>
<path d="M37.1892 27.33C37.1892 27.7599 36.8406 28.1084 36.4107 28.1084C35.9814 28.1084 35.6328 27.7599 35.6328 27.33C35.6328 26.9006 35.9814 26.5521 36.4107 26.5521C36.8406 26.5521 37.1892 26.9006 37.1892 27.33Z" fill="url(#paint23_linear_896_1528)"/>
<defs>
<linearGradient id="paint0_linear_896_1528" x1="28.804" y1="52.9067" x2="27.3138" y2="89.2571" gradientUnits="userSpaceOnUse">
<stop stop-color="#FF9900"/>
<stop offset="1" stop-color="#FF9900" stop-opacity="0"/>
</linearGradient>
<linearGradient id="paint1_linear_896_1528" x1="28.8038" y1="34.611" x2="27.3135" y2="70.9614" gradientUnits="userSpaceOnUse">
<stop stop-color="#FF9900"/>
<stop offset="1" stop-color="#FF9900" stop-opacity="0"/>
</linearGradient>
<linearGradient id="paint2_linear_896_1528" x1="28.803" y1="31.6502" x2="20.9115" y2="119.93" gradientUnits="userSpaceOnUse">
<stop stop-color="#FF9900"/>
<stop offset="1" stop-color="#FF9900" stop-opacity="0"/>
</linearGradient>
<linearGradient id="paint3_linear_896_1528" x1="80.7022" y1="42.5126" x2="70.3129" y2="108.611" gradientUnits="userSpaceOnUse">
<stop stop-color="#FF9900"/>
<stop offset="1" stop-color="#FF9900" stop-opacity="0"/>
</linearGradient>
<linearGradient id="paint4_linear_896_1528" x1="68.2152" y1="39.7576" x2="67.323" y2="47.5129" gradientUnits="userSpaceOnUse">
<stop stop-color="#FF9900"/>
<stop offset="1" stop-color="#FF9900" stop-opacity="0"/>
</linearGradient>
<linearGradient id="paint5_linear_896_1528" x1="56.4669" y1="15.4814" x2="49.8951" y2="72.3119" gradientUnits="userSpaceOnUse">
<stop stop-color="#FF9900"/>
<stop offset="1" stop-color="#FF9900" stop-opacity="0"/>
</linearGradient>
<linearGradient id="paint6_linear_896_1528" x1="18.5603" y1="19.8037" x2="17.2841" y2="34.3809" gradientUnits="userSpaceOnUse">
<stop stop-color="#FF9900"/>
<stop offset="1" stop-color="#FF9900" stop-opacity="0"/>
</linearGradient>
<linearGradient id="paint7_linear_896_1528" x1="40.4838" y1="9.81885" x2="39.3954" y2="19.4431" gradientUnits="userSpaceOnUse">
<stop stop-color="#FF9900"/>
<stop offset="1" stop-color="#FF9900" stop-opacity="0"/>
</linearGradient>
<linearGradient id="paint8_linear_896_1528" x1="37.71" y1="13.8946" x2="35.2595" y2="35.0705" gradientUnits="userSpaceOnUse">
<stop stop-color="#FF9900"/>
<stop offset="1" stop-color="#FF9900" stop-opacity="0"/>
</linearGradient>
<linearGradient id="paint9_linear_896_1528" x1="71.9249" y1="3.08301" x2="71.5056" y2="8.09405" gradientUnits="userSpaceOnUse">
<stop stop-color="#FF9900"/>
<stop offset="1" stop-color="#FF9900" stop-opacity="0"/>
</linearGradient>
<linearGradient id="paint10_linear_896_1528" x1="70.7081" y1="5.6106" x2="68.5339" y2="22.4556" gradientUnits="userSpaceOnUse">
<stop stop-color="#FF9900"/>
<stop offset="1" stop-color="#FF9900" stop-opacity="0"/>
</linearGradient>
<linearGradient id="paint11_linear_896_1528" x1="22.9055" y1="14.1443" x2="22.3651" y2="18.4834" gradientUnits="userSpaceOnUse">
<stop stop-color="#FF9900"/>
<stop offset="1" stop-color="#FF9900" stop-opacity="0"/>
</linearGradient>
<linearGradient id="paint12_linear_896_1528" x1="32.7903" y1="8.66718" x2="32.2501" y2="13.0052" gradientUnits="userSpaceOnUse">
<stop stop-color="#FF9900"/>
<stop offset="1" stop-color="#FF9900" stop-opacity="0"/>
</linearGradient>
<linearGradient id="paint13_linear_896_1528" x1="78.3625" y1="0.428711" x2="77.8221" y2="4.76777" gradientUnits="userSpaceOnUse">
<stop stop-color="#FF9900"/>
<stop offset="1" stop-color="#FF9900" stop-opacity="0"/>
</linearGradient>
<linearGradient id="paint14_linear_896_1528" x1="13.4049" y1="14.6646" x2="12.9901" y2="17.9927" gradientUnits="userSpaceOnUse">
<stop stop-color="#FF9900"/>
<stop offset="1" stop-color="#FF9900" stop-opacity="0"/>
</linearGradient>
<linearGradient id="paint15_linear_896_1528" x1="29.6141" y1="23.9443" x2="29.1998" y2="27.2715" gradientUnits="userSpaceOnUse">
<stop stop-color="#FF9900"/>
<stop offset="1" stop-color="#FF9900" stop-opacity="0"/>
</linearGradient>
<linearGradient id="paint16_linear_896_1528" x1="27.5475" y1="6.40039" x2="27.1332" y2="9.72641" gradientUnits="userSpaceOnUse">
<stop stop-color="#FF9900"/>
<stop offset="1" stop-color="#FF9900" stop-opacity="0"/>
</linearGradient>
<linearGradient id="paint17_linear_896_1528" x1="47.3976" y1="13.8862" x2="46.9831" y2="17.2144" gradientUnits="userSpaceOnUse">
<stop stop-color="#FF9900"/>
<stop offset="1" stop-color="#FF9900" stop-opacity="0"/>
</linearGradient>
<linearGradient id="paint18_linear_896_1528" x1="52.1827" y1="4.36328" x2="51.7688" y2="7.68936" gradientUnits="userSpaceOnUse">
<stop stop-color="#FF9900"/>
<stop offset="1" stop-color="#FF9900" stop-opacity="0"/>
</linearGradient>
<linearGradient id="paint19_linear_896_1528" x1="59.6576" y1="10.3816" x2="59.2427" y2="13.712" gradientUnits="userSpaceOnUse">
<stop stop-color="#FF9900"/>
<stop offset="1" stop-color="#FF9900" stop-opacity="0"/>
</linearGradient>
<linearGradient id="paint20_linear_896_1528" x1="76.9813" y1="17.7784" x2="76.567" y2="21.1055" gradientUnits="userSpaceOnUse">
<stop stop-color="#FF9900"/>
<stop offset="1" stop-color="#FF9900" stop-opacity="0"/>
</linearGradient>
<linearGradient id="paint21_linear_896_1528" x1="79.8331" y1="8.27954" x2="79.4192" y2="11.6056" gradientUnits="userSpaceOnUse">
<stop stop-color="#FF9900"/>
<stop offset="1" stop-color="#FF9900" stop-opacity="0"/>
</linearGradient>
<linearGradient id="paint22_linear_896_1528" x1="62.9361" y1="1.43164" x2="62.5216" y2="4.75873" gradientUnits="userSpaceOnUse">
<stop stop-color="#FF9900"/>
<stop offset="1" stop-color="#FF9900" stop-opacity="0"/>
</linearGradient>
<linearGradient id="paint23_linear_896_1528" x1="36.411" y1="26.5521" x2="35.9966" y2="29.8792" gradientUnits="userSpaceOnUse">
<stop stop-color="#FF9900"/>
<stop offset="1" stop-color="#FF9900" stop-opacity="0"/>
</linearGradient>
</defs>
</svg>
