<svg width="75" height="75" viewBox="0 0 75 75" fill="none" xmlns="http://www.w3.org/2000/svg">
<path d="M26.6196 60.7427C26.6196 61.3809 26.0977 61.9027 25.4595 61.9027H19.3456C18.7047 61.9027 18.1855 61.3836 18.1855 60.7427C18.1855 60.1017 18.7047 59.5826 19.3456 59.5826H25.4595C26.0977 59.5826 26.6196 60.1049 26.6196 60.7427Z" fill="url(#paint0_linear_896_1513)"/>
<path d="M26.6196 46.2855C26.6196 46.9237 26.0977 47.4456 25.4595 47.4456H19.3456C18.7047 47.4456 18.1855 46.9264 18.1855 46.2855C18.1855 45.6446 18.7047 45.1254 19.3456 45.1254H25.4595C26.0977 45.1254 26.6196 45.6472 26.6196 46.2855Z" fill="url(#paint1_linear_896_1513)"/>
<path d="M55.6602 53.274V57.9004C55.6602 58.5413 56.1793 59.0605 56.8202 59.0605C57.4611 59.0605 57.9803 58.5413 57.9803 57.9004V53.274C57.9803 52.6331 57.4611 52.114 56.8202 52.114C56.1793 52.114 55.6602 52.6331 55.6602 53.274Z" fill="url(#paint2_linear_896_1513)"/>
<path d="M72.4203 32.1803H27.8491V31.0309L29.719 29.3287V29.7555C29.719 30.1716 30.0619 30.5064 30.47 30.5064C30.8861 30.5064 31.2289 30.1716 31.2289 29.7555V28.7471C31.3384 28.6675 31.4303 28.5757 31.5104 28.4656H32.5188C32.9349 28.4656 33.2697 28.1227 33.2697 27.7147C33.2697 27.2986 32.9349 26.9557 32.5188 26.9557H31.5125C31.4319 26.8457 31.3395 26.7538 31.2289 26.6732V25.6659C31.2289 25.2498 30.8861 24.9149 30.47 24.9149C30.0619 24.9149 29.719 25.2498 29.719 25.6659V26.6705C29.6079 26.7512 29.515 26.8441 29.4344 26.9552H28.4297C28.0136 26.9552 27.6788 27.2981 27.6788 27.7142C27.6788 28.0853 27.9602 28.3893 28.324 28.4437L27.7621 28.9554C27.6863 28.8534 27.5709 28.7834 27.4342 28.7834H27.2579V27.7788H26.993V19.84C26.993 18.0759 28.4287 16.6402 30.1927 16.6402C31.9585 16.6402 33.3941 18.0759 33.3941 19.84V20.2902H33.3396C33.1559 20.2902 33.0069 20.4392 33.0069 20.623V21.7382C33.0069 21.9219 33.1559 22.0709 33.3396 22.0709H35.7537C35.9375 22.0709 36.0865 21.9219 36.0865 21.7382V20.623C36.0865 20.4392 35.9375 20.2902 35.7537 20.2902H35.6998V19.84C35.6998 16.8042 33.2296 14.3339 30.1927 14.3339C27.1569 14.3339 24.6866 16.804 24.6866 19.84V27.7788H24.4217V28.7834H24.2465C24.1098 28.7834 23.9944 28.8539 23.9186 28.9554L23.3567 28.4437C23.7205 28.3892 24.0019 28.0859 24.0019 27.7142C24.0019 27.2981 23.6671 26.9552 23.251 26.9552H22.2463C22.1657 26.8441 22.0728 26.7512 21.9617 26.6705V25.6659C21.9617 25.2498 21.6188 24.9149 21.2107 24.9149C20.7946 24.9149 20.4518 25.2498 20.4518 25.6659V26.6732C20.3412 26.7533 20.2483 26.8457 20.1682 26.9557L19.1614 26.9552C18.7453 26.9552 18.4104 27.2981 18.4104 27.7142C18.4104 28.1222 18.7453 28.4651 19.1614 28.4651H20.1698C20.2493 28.5746 20.3412 28.6665 20.4512 28.7466V29.7549C20.4512 30.171 20.7941 30.5059 21.2102 30.5059C21.6182 30.5059 21.9611 30.171 21.9611 29.7549V29.3282L23.831 31.0303V32.1797L1.94199 32.1803C0.897823 32.1803 0.0625 33.0273 0.0625 34.071V37.8764C0.0625 38.9206 0.897837 39.7559 1.94199 39.7559H3.45025V72.9006C3.45025 73.5965 4.01853 74.1653 4.715 74.1653H8.10276C8.79868 74.1653 9.35576 73.5965 9.35576 72.9006V71.4969H65.0075V72.9006C65.0075 73.5965 65.5758 74.1653 66.2605 74.1653H69.6482C70.3442 74.1653 70.913 73.5965 70.913 72.9006V39.7559H72.4213C73.4654 39.7559 74.3125 38.9206 74.3125 37.8764V34.071C74.3109 33.0268 73.4638 32.1803 72.4196 32.1803H72.4203ZM33.6027 67.2624C33.6027 68.0048 32.9992 68.6083 32.2685 68.6083L12.5343 68.6078C11.7919 68.6078 11.1884 68.0042 11.1884 67.2618V58.3755C11.1884 57.6331 11.7919 57.0296 12.5343 57.0296H32.2685C32.9992 57.0296 33.6027 57.6331 33.6027 58.3755V67.2624ZM33.835 52.8073C33.835 53.5497 33.2315 54.1533 32.4891 54.1533H12.7672C12.0248 54.1533 11.4213 53.5497 11.4213 52.8073V43.921C11.4213 43.1786 12.0248 42.575 12.7672 42.575H32.4891C33.2315 42.575 33.835 43.1786 33.835 43.921V52.8073ZM60.6218 66.5774C60.6218 67.7609 59.647 68.7233 58.464 68.7233H43.73C42.5352 68.7233 41.5723 67.7603 41.5723 66.5774V44.6158C41.5723 43.421 42.5353 42.4581 43.73 42.4581H58.464C59.6476 42.4581 60.6218 43.4211 60.6218 44.6158V66.5774Z" fill="url(#paint3_linear_896_1513)"/>
<path d="M48.152 4.94862C48.301 4.97586 48.4143 5.08909 48.4415 5.23811C48.5585 5.87796 48.7716 6.49325 49.0824 7.04171C49.2197 7.28419 49.5754 7.28419 49.7127 7.04171C50.023 6.49319 50.2366 5.87791 50.3536 5.23811C50.3808 5.0891 50.4941 4.97586 50.6431 4.94862C51.2819 4.83166 51.8966 4.61588 52.4446 4.30717C52.6877 4.16991 52.6877 3.81419 52.4452 3.6764C51.8972 3.36662 51.2824 3.15298 50.6436 3.03654C50.4946 3.0093 50.3808 2.89555 50.3536 2.74652C50.2366 2.10667 50.023 1.49139 49.7127 0.943332C49.5754 0.700855 49.2197 0.700855 49.0824 0.943332C48.7721 1.49132 48.5585 2.10713 48.4415 2.74652C48.4143 2.89553 48.3005 3.0093 48.1515 3.03654C47.5122 3.15297 46.8974 3.36662 46.35 3.6764C46.107 3.81366 46.1075 4.16991 46.3505 4.30717C46.8979 4.61588 47.5127 4.83165 48.152 4.94862Z" fill="url(#paint4_linear_896_1513)"/>
<path d="M68.0667 26.4557C68.2077 26.4814 68.3151 26.5892 68.3407 26.7297C68.4513 27.3354 68.6537 27.9181 68.9475 28.4372C69.0773 28.6669 69.4143 28.6669 69.5446 28.4372C69.8383 27.918 70.0408 27.3353 70.1513 26.7297C70.177 26.5887 70.2843 26.4814 70.4253 26.4557C71.0305 26.3446 71.6121 26.1406 72.1308 25.8484C72.361 25.7187 72.361 25.3816 72.1313 25.2513C71.6127 24.9581 71.0305 24.7562 70.4253 24.6457C70.2843 24.62 70.177 24.5121 70.1508 24.3711C70.0402 23.7655 69.8378 23.1828 69.544 22.6642C69.4143 22.4345 69.0772 22.4345 68.9469 22.6642C68.6532 23.1833 68.4507 23.7655 68.3402 24.3711C68.3145 24.5121 68.2067 24.6195 68.0657 24.6457C67.4605 24.7562 66.8784 24.9581 66.3597 25.2513C66.13 25.3811 66.13 25.7187 66.3602 25.8484C66.8794 26.1406 67.4617 26.3446 68.0667 26.4557Z" fill="url(#paint5_linear_896_1513)"/>
<path d="M45.2056 26.0387C45.3466 26.0644 45.454 26.1723 45.4796 26.3127C45.5902 26.9184 45.7926 27.5011 46.0863 28.0202C46.2161 28.2499 46.5531 28.2499 46.6835 28.0202C46.9772 27.5011 47.1796 26.9184 47.2902 26.3127C47.3158 26.1717 47.4232 26.0644 47.5642 26.0387C48.1693 25.9276 48.751 25.7236 49.2696 25.4315C49.4998 25.3017 49.4998 24.9646 49.2702 24.8343C48.7515 24.5411 48.1694 24.3392 47.5642 24.2287C47.4232 24.203 47.3158 24.0951 47.2897 23.9541C47.1791 23.3485 46.9767 22.7658 46.6829 22.2472C46.5531 22.0175 46.2161 22.0175 46.0858 22.2472C45.792 22.7663 45.5896 23.3485 45.4791 23.9541C45.4534 24.0951 45.3455 24.2025 45.2045 24.2287C44.5994 24.3392 44.0172 24.5411 43.4986 24.8343C43.2684 24.9641 43.2689 25.3017 43.4991 25.4315C44.0188 25.7241 44.6009 25.9282 45.2055 26.0387H45.2056Z" fill="url(#paint6_linear_896_1513)"/>
<path d="M66.7217 10.439C69.4686 8.72879 72.5001 6.35789 73.2259 5.63213C74.5083 4.34976 74.5083 2.26352 73.2259 0.980589C71.9302 -0.315144 69.8446 -0.315144 68.5616 0.980589C67.8363 1.69307 65.465 4.73792 63.7548 7.47156C63.2623 8.27485 62.2261 8.56005 61.4228 8.08043C59.4274 6.9022 57.432 6.52622 56.0071 7.07045L55.6835 6.74678C55.4501 6.51338 55.0874 6.51338 54.8673 6.74678C54.6339 6.96683 54.6339 7.34284 54.8673 7.56289L55.1007 7.80912L49.4906 11.3983C49.0371 11.6835 48.8689 12.2795 49.1279 12.7586C49.3613 13.1475 49.5942 13.5229 49.8276 13.8989L55.3988 11.567L51.149 15.8815C51.9004 16.931 52.7037 17.9159 53.5717 18.8484L58.8839 15.3372L55.3727 20.6494C56.3058 21.5045 57.29 22.3078 58.3396 23.0593L62.7059 18.7576L60.3479 24.3935C60.7105 24.6135 61.0732 24.8469 61.4492 25.067C61.9155 25.326 62.5115 25.1706 62.7967 24.7043L66.3987 19.0942L66.645 19.3532C66.8784 19.5866 67.241 19.5866 67.4744 19.3532C67.6945 19.1332 67.6945 18.7571 67.4744 18.5371L67.1246 18.1873C67.6688 16.7623 67.2928 14.7668 66.1141 12.7715C65.6339 11.9677 65.9186 10.9316 66.7219 10.4391L66.7217 10.439ZM70.6607 2.03013C71.386 2.03013 71.9564 2.61336 71.9564 3.32586C71.9564 4.03836 71.3866 4.62159 70.6607 4.62159C69.9482 4.62159 69.365 4.03836 69.365 3.32586C69.365 2.61336 69.9482 2.03013 70.6607 2.03013Z" fill="url(#paint7_linear_896_1513)"/>
<defs>
<linearGradient id="paint0_linear_896_1513" x1="22.4026" y1="59.5826" x2="22.2302" y2="64.6135" gradientUnits="userSpaceOnUse">
<stop stop-color="#FF9900"/>
<stop offset="1" stop-color="#FF9900" stop-opacity="0"/>
</linearGradient>
<linearGradient id="paint1_linear_896_1513" x1="22.4026" y1="45.1254" x2="22.2302" y2="50.1563" gradientUnits="userSpaceOnUse">
<stop stop-color="#FF9900"/>
<stop offset="1" stop-color="#FF9900" stop-opacity="0"/>
</linearGradient>
<linearGradient id="paint2_linear_896_1513" x1="56.8202" y1="52.114" x2="51.8836" y2="65.3534" gradientUnits="userSpaceOnUse">
<stop stop-color="#FF9900"/>
<stop offset="1" stop-color="#FF9900" stop-opacity="0"/>
</linearGradient>
<linearGradient id="paint3_linear_896_1513" x1="37.1875" y1="14.3339" x2="24.2825" y2="142.927" gradientUnits="userSpaceOnUse">
<stop stop-color="#FF9900"/>
<stop offset="1" stop-color="#FF9900" stop-opacity="0"/>
</linearGradient>
<linearGradient id="paint4_linear_896_1513" x1="49.3975" y1="0.761475" x2="47.6762" y2="14.5756" gradientUnits="userSpaceOnUse">
<stop stop-color="#FF9900"/>
<stop offset="1" stop-color="#FF9900" stop-opacity="0"/>
</linearGradient>
<linearGradient id="paint5_linear_896_1513" x1="69.2455" y1="22.4919" x2="67.6164" y2="35.5695" gradientUnits="userSpaceOnUse">
<stop stop-color="#FF9900"/>
<stop offset="1" stop-color="#FF9900" stop-opacity="0"/>
</linearGradient>
<linearGradient id="paint6_linear_896_1513" x1="46.3843" y1="22.075" x2="44.7552" y2="35.1525" gradientUnits="userSpaceOnUse">
<stop stop-color="#FF9900"/>
<stop offset="1" stop-color="#FF9900" stop-opacity="0"/>
</linearGradient>
<linearGradient id="paint7_linear_896_1513" x1="61.5968" y1="0.00878896" x2="54.8919" y2="53.8435" gradientUnits="userSpaceOnUse">
<stop stop-color="#FF9900"/>
<stop offset="1" stop-color="#FF9900" stop-opacity="0"/>
</linearGradient>
</defs>
</svg>
