<svg width="71" height="81" viewBox="0 0 71 81" fill="none" xmlns="http://www.w3.org/2000/svg">
<path d="M6.94195 7.36566L8.16647 9.63968L9.39099 7.36566C9.56549 7.01606 9.7406 6.66584 10.2653 6.49073L12.5393 5.26621L10.2653 4.04169C9.7406 3.86719 9.56549 3.51697 9.21588 3.16737L7.99136 0.892883L6.94193 3.16737C6.59171 3.51697 6.41661 3.86719 5.89189 4.04169L3.79297 5.26621L5.89189 6.49073C6.41661 6.66584 6.59173 7.01606 6.94195 7.36566Z" fill="url(#paint0_linear_896_1609)"/>
<path d="M3.44387 23.8098L4.66839 26.0839L5.89291 23.8098C6.06802 23.4602 6.41763 23.11 6.76784 22.9349L9.04186 21.7104L6.76784 20.4859C6.41824 20.3108 6.06802 19.9611 5.89291 19.6109L4.66839 17.3369L3.44387 19.6109C3.26876 19.9605 2.91915 20.3108 2.56894 20.4859L0.294922 21.7104L2.56894 22.9349C2.91915 23.11 3.26876 23.4596 3.44387 23.8098Z" fill="url(#paint1_linear_896_1609)"/>
<path d="M35.7846 71.6989C35.4751 71.1171 34.8684 70.7579 34.2121 70.7579H26.3248V63.9357C26.3248 63.5021 25.9781 63.1554 25.545 63.1554H19.6763C19.2427 63.1554 18.896 63.5021 18.896 63.9357V70.7579H11.0092C10.3529 70.7579 9.74625 71.117 9.43668 71.6989L6.71283 76.6516C6.04414 77.8525 6.91075 79.3134 8.28536 79.3134H36.9368C38.3109 79.3134 39.1779 77.8525 38.5093 76.6516L35.7846 71.6989Z" fill="url(#paint2_linear_896_1609)"/>
<path d="M54.0424 41.3517C54.0424 44.0119 51.8875 46.1446 49.2381 46.1446C46.6005 46.1446 44.4452 44.0119 44.4452 41.3517C44.4452 39.6118 45.3883 38.1188 46.7685 37.2884V21.4057C46.7685 17.7015 43.7491 14.6822 40.045 14.6822H31.8064C28.1136 14.6822 25.0828 17.7015 25.0828 21.4057V60.9168H20.1328V21.4057C20.1328 14.9627 25.3748 9.73212 31.8064 9.73212H40.045C46.4879 9.73212 51.7185 14.9627 51.7185 21.4057V37.2884C53.0994 38.1189 54.0424 39.6231 54.0424 41.3517Z" fill="url(#paint3_linear_896_1609)"/>
<path d="M49.2376 71.3433C46.813 71.3433 44.7815 69.6261 44.2539 67.3472H28.5723V68.5145H34.207C35.6999 68.5145 37.0694 69.3341 37.7654 70.6472L40.4706 75.575C41.1775 76.8209 41.1553 78.3252 40.4256 79.5711C40.2349 79.9075 39.9879 80.1995 39.7187 80.4465H58.7328C63.6828 80.4465 67.9931 77.1015 69.194 72.3199C69.5981 70.6921 69.8787 69.0313 70.0472 67.3476L54.2319 67.3471C53.7043 69.6261 51.6615 71.3432 49.2369 71.3432L49.2376 71.3433Z" fill="url(#paint4_linear_896_1609)"/>
<path d="M63.2788 34.4142C62.0665 31.6532 60.1136 29.3293 57.6326 27.7021C56.4767 26.9502 55.253 26.3662 53.9621 25.9622V36.1543C55.3878 37.4229 56.2854 39.2858 56.2854 41.3513C56.2854 45.2352 53.1202 48.389 49.2363 48.389C45.3638 48.389 42.1986 45.2346 42.1986 41.3513C42.1986 39.2858 43.0967 37.4229 44.5219 36.1543V25.9736C43.984 26.1421 43.445 26.3441 42.9396 26.5684C39.4711 28.1399 36.7323 30.935 35.2285 34.4144C32.4334 40.8573 28.9654 50.5895 28.3701 60.2983L28.123 62.3637C28.415 62.8242 28.5721 63.3626 28.5721 63.9352V65.1026H44.2525C44.7687 62.8127 46.8006 61.0956 49.2361 61.0956C51.6829 61.0956 53.7258 62.8127 54.2311 65.1026H70.2038C70.6534 54.3044 66.9044 42.8209 63.2787 34.4139L63.2788 34.4142Z" fill="url(#paint5_linear_896_1609)"/>
<path d="M52.1221 66.2183H52.1232C52.1232 66.2168 52.1242 66.2152 52.1242 66.2132H52.1221C52.1221 64.6287 50.8282 63.3394 49.237 63.3394C47.6526 63.3394 46.3633 64.6287 46.3633 66.2132C46.3715 67.8058 47.6603 69.0977 49.237 69.0977C50.8467 69.0977 52.1138 67.8327 52.1221 66.2183Z" fill="url(#paint6_linear_896_1609)"/>
<defs>
<linearGradient id="paint0_linear_896_1609" x1="8.16615" y1="0.892883" x2="5.83733" y2="19.5913" gradientUnits="userSpaceOnUse">
<stop stop-color="#FF9900"/>
<stop offset="1" stop-color="#FF9900" stop-opacity="0"/>
</linearGradient>
<linearGradient id="paint1_linear_896_1609" x1="4.66839" y1="17.3369" x2="2.33965" y2="36.0356" gradientUnits="userSpaceOnUse">
<stop stop-color="#FF9900"/>
<stop offset="1" stop-color="#FF9900" stop-opacity="0"/>
</linearGradient>
<linearGradient id="paint2_linear_896_1609" x1="22.611" y1="63.1554" x2="20.4312" y2="98.0969" gradientUnits="userSpaceOnUse">
<stop stop-color="#FF9900"/>
<stop offset="1" stop-color="#FF9900" stop-opacity="0"/>
</linearGradient>
<linearGradient id="paint3_linear_896_1609" x1="37.0876" y1="9.73212" x2="16.9121" y2="117.056" gradientUnits="userSpaceOnUse">
<stop stop-color="#FF9900"/>
<stop offset="1" stop-color="#FF9900" stop-opacity="0"/>
</linearGradient>
<linearGradient id="paint4_linear_896_1609" x1="49.3097" y1="67.3471" x2="48.1929" y2="95.7406" gradientUnits="userSpaceOnUse">
<stop stop-color="#FF9900"/>
<stop offset="1" stop-color="#FF9900" stop-opacity="0"/>
</linearGradient>
<linearGradient id="paint5_linear_896_1609" x1="49.1818" y1="25.9622" x2="39.4777" y2="109.809" gradientUnits="userSpaceOnUse">
<stop stop-color="#FF9900"/>
<stop offset="1" stop-color="#FF9900" stop-opacity="0"/>
</linearGradient>
<linearGradient id="paint6_linear_896_1609" x1="49.2437" y1="63.3394" x2="47.7113" y2="75.6494" gradientUnits="userSpaceOnUse">
<stop stop-color="#FF9900"/>
<stop offset="1" stop-color="#FF9900" stop-opacity="0"/>
</linearGradient>
</defs>
</svg>
