<svg width="103" height="76" viewBox="0 0 103 76" fill="none" xmlns="http://www.w3.org/2000/svg">
<path d="M47.144 51.9695C43.5478 51.9695 40.542 50.7573 38.1222 48.3375C35.7024 45.9177 34.4902 42.9074 34.4902 39.3157V26.076C34.4902 24.9041 34.8525 23.9559 35.5727 23.2358C36.2928 22.5156 37.241 22.1533 38.4129 22.1533C41.0698 22.1533 42.3983 23.4639 42.3983 26.0805V39.3202C42.3983 40.6486 42.859 41.7713 43.7759 42.6883C44.6928 43.6052 45.8155 44.0659 47.144 44.0659C48.4724 44.0659 49.5862 43.6052 50.4852 42.6883C51.3843 41.7713 51.8315 40.6486 51.8315 39.3202V26.0805C51.8315 24.9086 52.2028 23.9604 52.9453 23.2402C53.6878 22.5156 54.645 22.1578 55.8169 22.1578C56.9888 22.1578 57.937 22.5201 58.6571 23.2402C59.3818 23.9648 59.7396 24.9086 59.7396 26.0805V52.211C59.7396 55.7625 58.5185 58.7638 56.0808 61.2015C53.6386 63.6437 50.6418 64.8648 47.0858 64.8648H46.8532C45.6814 64.8648 44.7242 64.5025 43.9817 63.7823C43.2392 63.0577 42.8679 62.1139 42.8679 60.942C42.8679 59.7702 43.2392 58.813 43.9817 58.0705C44.7242 57.328 45.6814 56.9567 46.8532 56.9567H47.0858C48.374 56.9567 49.4878 56.4871 50.4271 55.5522C51.3664 54.6174 51.8315 53.5037 51.8315 52.211V51.0973C50.3466 51.6832 48.7855 51.9739 47.144 51.9739V51.9695Z" fill="#4D4D4D"/>
<path d="M70.8719 14.1842V48.0438C70.8719 49.2157 70.5006 50.1639 69.7582 50.8841C69.0157 51.6042 68.0585 51.9665 66.8866 51.9665C65.7147 51.9665 64.7664 51.6042 64.0463 50.8841C63.3217 50.1595 62.9639 49.2157 62.9639 48.0438V14.1842C62.9639 13.0123 63.3262 12.064 64.0463 11.3439C64.7709 10.6238 65.7147 10.2615 66.8866 10.2615C69.5435 10.2615 70.8719 11.572 70.8719 14.1887V14.1842Z" fill="#4D4D4D"/>
<path d="M99.2851 32.6389L91.7885 39.9609C90.9297 40.7795 90.0128 41.191 89.0333 41.191C87.9419 41.191 86.9936 40.7795 86.193 39.9609C85.3923 39.1424 84.9898 38.1852 84.9898 37.0894C84.9898 36.1143 85.4192 35.1973 86.278 34.3341L90.4959 30.1743C89.986 30.0983 89.4805 30.058 88.9706 30.058C87.016 30.058 85.3566 30.7424 83.9923 32.1066C82.6236 33.4753 81.9438 35.1347 81.9438 37.0849C81.9438 39.0351 82.6281 40.7079 83.9923 42.0945C85.361 43.4811 87.0205 44.1744 88.9706 44.1744H94.186C95.3579 44.1744 96.3061 44.5367 97.0263 45.2568C97.7509 45.9814 98.1087 46.9252 98.1087 48.0971C98.1087 49.269 97.7464 50.2262 97.0263 50.9687C96.3017 51.7112 95.3579 52.0824 94.186 52.0824H88.9706C84.7527 52.0824 81.2057 50.6377 78.3386 47.7482C75.467 44.8587 74.0312 41.3028 74.0312 37.0849C74.0312 32.867 75.467 29.3245 78.3386 26.4529C81.2102 23.5813 84.7527 22.1455 88.9706 22.1455C93.1886 22.1455 96.8384 23.6708 99.8084 26.7168C100.591 27.5353 100.98 28.4344 100.98 29.4094C100.98 30.6976 100.412 31.7711 99.2806 32.6299L99.2851 32.6389Z" fill="#4D4D4D"/>
<path d="M4.0882 12.1969C1.8294 12.1969 0 14.0263 0 16.2851V47.8904C0 50.1492 1.8294 51.9786 4.0882 51.9786C6.347 51.9786 8.1764 50.1492 8.1764 47.8904V16.2806C8.1764 14.0218 6.347 12.1924 4.0882 12.1924V12.1969Z" fill="#FF9900"/>
<path d="M28.1026 13.1786C27.132 12.208 25.553 12.208 24.5824 13.1786L16.8891 20.872C15.9185 21.8426 15.9185 23.4215 16.8891 24.3921C17.8597 25.3627 19.4386 25.3627 20.4092 24.3921L28.1026 16.6988C29.0732 15.7282 29.0732 14.1493 28.1026 13.1786Z" fill="#FF9900"/>
<path d="M3.19769 13.1786C2.22707 14.1493 2.22707 15.7282 3.19769 16.6988L10.891 24.3921C11.8616 25.3627 13.4406 25.3627 14.4112 24.3921C15.3818 23.4215 15.3818 21.8426 14.4112 20.872L6.71783 13.1786C5.74722 12.208 4.1683 12.208 3.19769 13.1786Z" fill="#FF9900"/>
<path d="M4.0882 8.1764C6.34605 8.1764 8.1764 6.34605 8.1764 4.0882C8.1764 1.83035 6.34605 0 4.0882 0C1.83035 0 0 1.83035 0 4.0882C0 6.34605 1.83035 8.1764 4.0882 8.1764Z" fill="#FF9900"/>
<path d="M27.2396 12.1969C24.9808 12.1969 23.1514 14.0263 23.1514 16.2851V47.8904C23.1514 50.1492 24.9808 51.9786 27.2396 51.9786C29.4984 51.9786 31.3278 50.1492 31.3278 47.8904V16.2806C31.3278 14.0218 29.4984 12.1924 27.2396 12.1924V12.1969Z" fill="#FF9900"/>
<path d="M27.2396 8.1764C29.4974 8.1764 31.3278 6.34605 31.3278 4.0882C31.3278 1.83035 29.4974 0 27.2396 0C24.9817 0 23.1514 1.83035 23.1514 4.0882C23.1514 6.34605 24.9817 8.1764 27.2396 8.1764Z" fill="#FF9900"/>
<path d="M0.944905 75.2253H0L0.355509 71.0808H1.39397L1.97401 72.5824C2.07224 72.835 2.15644 73.0642 2.22661 73.27C2.29677 73.4805 2.34355 73.6255 2.36226 73.7144L2.39501 73.836C2.46049 73.5647 2.60551 73.1484 2.82536 72.5824L3.41008 71.0808H4.44854L4.87889 75.2253H3.93399L3.77962 73.6208L3.7001 72.4093C3.59251 72.718 3.4475 73.1203 3.25571 73.6208L2.67099 75.1832H2.10966L1.52962 73.6208C1.43607 73.3682 1.35655 73.139 1.29106 72.9379C1.22557 72.7367 1.18347 72.5964 1.16008 72.5216L1.12734 72.4093C1.12734 72.6993 1.10863 73.1063 1.0712 73.6208L0.940227 75.2253H0.944905Z" fill="black"/>
<path d="M7.54442 75.2253H6.55273L7.93735 71.0808H9.13017L10.5148 75.2253H9.49971L9.24712 74.3786H7.79702L7.54442 75.2253ZM8.06832 73.4665L8.02622 73.6161H9.02259L8.98049 73.4665C8.86354 73.0642 8.76531 72.7227 8.69046 72.4374C8.61562 72.152 8.56884 71.9696 8.55013 71.8901L8.52674 71.7684C8.494 71.993 8.34431 72.559 8.073 73.4665H8.06832Z" fill="black"/>
<path d="M13.2379 75.2248H12.293V71.0804H13.2379V75.2248ZM15.8574 75.2248H14.6693L13.28 73.162L14.6225 71.0757H15.7498L14.3886 73.1479L15.8574 75.2202V75.2248Z" fill="black"/>
<path d="M18.5982 75.2253H17.6533V71.0808H18.5982V75.2253Z" fill="black"/>
<path d="M21.6392 75.2248H20.6943V71.0804H21.7328L22.6964 72.7971C22.8321 73.0403 22.949 73.2649 23.0519 73.4754C23.1502 73.6859 23.2156 73.8355 23.2437 73.9197L23.2905 74.0554C23.2484 73.7514 23.2297 73.3304 23.2297 72.7924V71.0757H24.1746V75.2202H23.1361L22.1444 73.5034C22.0135 73.2836 21.8965 73.0637 21.7983 72.8485C21.7001 72.6334 21.6299 72.4743 21.5925 72.3714L21.541 72.217C21.6018 72.5866 21.6346 73.0169 21.6346 73.5034V75.2202L21.6392 75.2248Z" fill="black"/>
<path d="M29.7838 74.8404C29.3909 75.1258 28.8951 75.2708 28.2963 75.2708C27.6321 75.2708 27.0941 75.079 26.6778 74.7001C26.2615 74.3165 26.0557 73.802 26.0557 73.1424C26.0557 72.4828 26.2708 71.9776 26.7059 71.5847C27.1409 71.1918 27.6882 71 28.3524 71C28.8202 71 29.2225 71.0842 29.564 71.2573V72.2069C29.171 71.9823 28.7641 71.8701 28.3524 71.8701C27.9642 71.8701 27.6555 71.987 27.4216 72.2162C27.1877 72.4454 27.0754 72.7542 27.0754 73.1424C27.0754 73.5307 27.1877 73.8441 27.4122 74.0733C27.6367 74.3025 27.9455 74.4194 28.3337 74.4194C28.5115 74.4194 28.6846 74.3914 28.8576 74.3399V73.5587H28.1887V72.7542H29.7838V74.8451V74.8404Z" fill="black"/>
<path d="M36.59 75.2253H35.6451V73.705L34.2324 71.0808H35.341L35.5936 71.6842C35.7246 71.9976 35.8322 72.2643 35.9211 72.4841C36.01 72.704 36.0614 72.849 36.0895 72.9145L36.1222 73.0127C36.1643 72.8303 36.3421 72.3859 36.6648 71.6842L36.9362 71.0808H38.0354L36.604 73.7004V75.2253H36.59Z" fill="black"/>
<path d="M43.617 73.1389C43.617 73.775 43.4345 74.2896 43.065 74.6779C42.7001 75.0708 42.209 75.2672 41.5962 75.2672C40.9834 75.2672 40.4922 75.0708 40.1274 74.6825C39.7625 74.2943 39.5801 73.7797 39.5801 73.1389C39.5801 72.498 39.7625 71.9881 40.1321 71.5999C40.5016 71.2116 40.9881 71.0105 41.6009 71.0105C42.2137 71.0105 42.7048 71.207 43.0697 71.5952C43.4345 71.9835 43.617 72.498 43.617 73.1389ZM40.8665 72.2127C40.684 72.4419 40.5951 72.7506 40.5951 73.1389C40.5951 73.5271 40.684 73.8359 40.8665 74.0651C41.0489 74.2943 41.2921 74.4065 41.5962 74.4065C41.9002 74.4065 42.1482 74.2943 42.3259 74.0651C42.5037 73.8359 42.5972 73.5271 42.5972 73.1389C42.5972 72.7506 42.5084 72.4419 42.3259 72.2127C42.1435 71.9835 41.9002 71.8712 41.5962 71.8712C41.2921 71.8712 41.0442 71.9835 40.8665 72.2127Z" fill="black"/>
<path d="M48.8307 73.6208C48.8307 74.1634 48.681 74.5751 48.3769 74.8604C48.0729 75.1458 47.6612 75.2861 47.1467 75.2861C46.6321 75.2861 46.2298 75.1458 45.9211 74.8604C45.6124 74.5751 45.458 74.1775 45.458 73.6629V71.0808H46.4029V73.6582C46.4029 74.1728 46.6508 74.4254 47.142 74.4254C47.6332 74.4254 47.8811 74.1588 47.8811 73.6255V71.0808H48.826V73.6208H48.8307Z" fill="black"/>
<path d="M51.7769 75.2253H50.832V71.0808H52.2634C52.7265 71.0808 53.1007 71.2024 53.3814 71.4503C53.6621 71.6983 53.8024 72.0164 53.8024 72.4093C53.8024 72.9987 53.5498 73.4056 53.0446 73.6349L54.0971 75.23H52.9651L52.067 73.7892H51.7769V75.23V75.2253ZM52.2447 71.848H51.7769V73.0174H52.226C52.6376 73.0174 52.8388 72.8163 52.8388 72.414C52.8388 72.2362 52.7873 72.1006 52.6797 71.9976C52.5722 71.8994 52.4271 71.848 52.2447 71.848Z" fill="black"/>
<path d="M61.0827 75.2253H58.6035V71.0808H59.5531V74.3973H61.0827V75.23V75.2253Z" fill="black"/>
<path d="M63.8424 75.2253H62.8975V71.0808H63.8424V75.2253Z" fill="black"/>
<path d="M68.2584 73.6629H66.8879V75.2253H65.9336V71.0808H68.4596V71.8386H66.8832V72.9098H68.2538V73.6676L68.2584 73.6629Z" fill="black"/>
<path d="M72.8558 75.2253H70.2783V71.0808H72.8324V71.8386H71.2326V72.7788H72.6593V73.5273H71.2326V74.4675H72.8558V75.2253Z" fill="black"/>
<path d="M80.2005 75.2253H77.623V71.0808H80.1771V71.8386H78.5773V72.7788H80.004V73.5273H78.5773V74.4675H80.2005V75.2253Z" fill="black"/>
<path d="M82.9272 75.2253H81.9355L83.3202 71.0808H84.513L85.8976 75.2253H84.8825L84.6299 74.3786H83.1798L82.9272 75.2253ZM83.4511 73.4665L83.409 73.6161H84.4054L84.3633 73.4665C84.2464 73.0642 84.1481 72.7227 84.0733 72.4374C83.9984 72.152 83.9517 71.9696 83.9329 71.8901L83.9096 71.7684C83.8768 71.993 83.7271 72.559 83.4558 73.4665H83.4511Z" fill="black"/>
<path d="M90.2484 74.0181C90.2484 74.3923 90.1128 74.6917 89.8368 74.9256C89.5608 75.1595 89.1959 75.2717 88.7422 75.2717C88.2557 75.2717 87.8581 75.1875 87.5493 75.0145V74.0602C87.9236 74.3315 88.3212 74.4672 88.7422 74.4672C88.8872 74.4672 89.0041 74.4297 89.0977 74.3549C89.1912 74.2801 89.238 74.1772 89.238 74.0555C89.238 74.0134 89.2333 73.976 89.2193 73.9386C89.2053 73.9012 89.1866 73.8684 89.1538 73.8357C89.1211 73.8029 89.0883 73.7749 89.0603 73.7515C89.0275 73.7281 88.9854 73.7047 88.9246 73.672C88.8638 73.6392 88.817 73.6158 88.7749 73.5971C88.7328 73.5784 88.672 73.5457 88.5925 73.5129C88.513 73.4755 88.4475 73.4474 88.4007 73.4287C88.1341 73.3071 87.9189 73.1527 87.7598 72.975C87.5961 72.7925 87.5166 72.554 87.5166 72.2546C87.5166 71.8991 87.6476 71.6091 87.9095 71.3892C88.1715 71.1694 88.5363 71.0618 88.9994 71.0618C89.4111 71.0618 89.7713 71.1319 90.0707 71.2723V72.1564C89.7385 71.9646 89.3924 71.8663 89.0369 71.8663C88.8778 71.8663 88.7562 71.8991 88.672 71.9646C88.5878 72.0301 88.5457 72.1143 88.5457 72.2172C88.5457 72.3201 88.5972 72.409 88.7001 72.4885C88.803 72.568 88.9574 72.6522 89.1632 72.7411C89.2895 72.7972 89.3971 72.8487 89.4813 72.8908C89.5655 72.9329 89.6637 72.9937 89.7713 73.0685C89.8789 73.1434 89.9677 73.2229 90.0286 73.3071C90.094 73.3913 90.1455 73.4942 90.1923 73.6158C90.2391 73.7374 90.2578 73.8731 90.2578 74.0134L90.2484 74.0181Z" fill="black"/>
<path d="M93.0689 75.2253H92.124V71.0808H93.0689V75.2253Z" fill="black"/>
<path d="M97.7405 75.2253H95.1631V71.0808H97.7171V71.8386H96.1173V72.7788H97.5441V73.5273H96.1173V74.4675H97.7405V75.2253Z" fill="black"/>
<path d="M100.684 75.2253H99.7344V71.0808H101.166C101.629 71.0808 102.003 71.2024 102.284 71.4503C102.564 71.6983 102.705 72.0164 102.705 72.4093C102.705 72.9987 102.452 73.4056 101.947 73.6349L102.999 75.23H101.867L100.969 73.7892H100.679V75.23L100.684 75.2253ZM101.152 71.848H100.684V73.0174H101.133C101.545 73.0174 101.746 72.8163 101.746 72.414C101.746 72.2362 101.694 72.1006 101.587 71.9976C101.479 71.8994 101.334 71.848 101.152 71.848Z" fill="black"/>
</svg>
