<svg width="15" height="22" viewBox="0 0 15 22" fill="none" xmlns="http://www.w3.org/2000/svg">
<path d="M1.19214 12.2095L1.22963 12.2688C1.2765 12.3413 1.32337 12.4105 1.37023 12.4832L6.79844 20.7283C6.95669 20.9684 7.21653 21.1118 7.49381 21.1118C7.77109 21.1118 8.0307 20.9684 8.18918 20.7283L13.6111 12.4962C13.661 12.4203 13.7142 12.3446 13.7641 12.2652L13.7986 12.2125C14.7792 10.6116 15.1795 8.69064 14.9255 6.80305C14.6718 4.91523 13.7809 3.18777 12.4165 1.93794C11.0524 0.688286 9.30656 0 7.50008 0C5.69343 0 3.94761 0.688345 2.58348 1.93794C1.21913 3.18783 0.328227 4.91529 0.074487 6.80305C-0.179465 8.69064 0.220754 10.6116 1.20145 12.2125L1.19214 12.2095ZM7.49518 4.62401C8.32398 4.62401 9.11896 4.97161 9.7049 5.58997C10.2911 6.20859 10.6202 7.04734 10.6202 7.92203C10.6202 8.79671 10.291 9.6357 9.7049 10.2541C9.11896 10.8727 8.32398 11.2201 7.49518 11.2201C6.66639 11.2201 5.8714 10.8727 5.28546 10.2541C4.6993 9.6357 4.37017 8.79671 4.37017 7.92203C4.37017 7.04734 4.69932 6.20859 5.28546 5.58997C5.8714 4.97159 6.66639 4.62401 7.49518 4.62401Z" fill="url(#paint0_linear_853_925)"/>
<defs>
<linearGradient id="paint0_linear_853_925" x1="7.5" y1="-1.39758e-06" x2="-37.3007" y2="26.7201" gradientUnits="userSpaceOnUse">
<stop stop-color="#FAA82E"/>
<stop offset="1" stop-color="#979797" stop-opacity="0"/>
</linearGradient>
</defs>
</svg>
