<svg width="40" height="41" viewBox="0 0 40 41" fill="none" xmlns="http://www.w3.org/2000/svg">
<path d="M31.0984 14.7776H33.3541C34.6038 14.7776 35.6163 15.79 35.6163 17.0397V23.1787C35.6163 23.4351 35.8278 23.6466 36.0842 23.6466C36.3405 23.6466 36.552 23.4351 36.552 23.1787L36.5518 17.0397C36.5518 15.2776 35.1162 13.842 33.3541 13.842H31.0984C30.842 13.842 30.6305 14.0536 30.6305 14.3099C30.6243 14.5725 30.8359 14.7776 31.0984 14.7776Z" fill="#858A8F"/>
<path d="M38.1156 25.1587H31.6627L32.4829 24.3385C32.7776 24.0438 32.9378 23.6594 32.9378 23.2428C32.9378 22.8328 32.7776 22.4419 32.4829 22.1471L28.5996 18.2639C28.0163 17.6806 26.9911 17.6806 26.4079 18.2639L22.5181 22.1471C22.3579 22.3073 22.2425 22.4997 22.1655 22.6982H17.321C17.244 22.4997 17.1287 22.3073 16.9685 22.1471L13.0852 18.2639C12.502 17.6806 11.4768 17.6806 10.8935 18.2639L7.00371 22.1471C6.709 22.4419 6.5488 22.8263 6.5488 23.2428C6.5488 23.6594 6.709 24.0438 7.00371 24.3385L7.82383 25.1587H1.3842C0.621562 25.1587 0 25.7803 0 26.5429V35.0401C0 36.1231 0.877966 37.001 1.96098 37.001H4.44088V40.0642H1.3907C1.13433 40.0642 0.922804 40.2757 0.922804 40.5321C0.922804 40.7885 1.13433 41 1.3907 41H38.1089C38.3653 41 38.5768 40.7885 38.5768 40.5321C38.5768 40.2757 38.3653 40.0642 38.1089 40.0642H35.0588V37.001H37.5387C38.6217 37.001 39.4996 36.1231 39.4996 35.0401L39.4993 26.5429C39.4993 25.7802 38.8777 25.1587 38.1151 25.1587H38.1156ZM27.074 18.9238C27.3047 18.6931 27.7021 18.6931 27.9328 18.9238L31.816 22.8071C31.9314 22.9224 31.9954 23.0761 31.9954 23.2363C31.9954 23.3965 31.9314 23.5502 31.816 23.6656L30.4318 25.0498H24.5619L23.1777 23.6656C23.0815 23.5694 23.0302 23.4476 23.0175 23.313C23.0367 23.2682 23.0497 23.2168 23.0497 23.1593C23.0497 23.1336 23.037 23.108 23.037 23.0823C23.0626 22.9797 23.1075 22.8838 23.1845 22.8003L27.074 18.9238ZM7.50421 23.2428C7.50421 23.0827 7.56823 22.929 7.68358 22.8136L11.5734 18.9303C11.8041 18.6996 12.2015 18.6996 12.4321 18.9303L16.3154 22.8136C16.3924 22.8906 16.4373 22.993 16.4629 23.0956C16.4565 23.1213 16.4503 23.147 16.4503 23.1726C16.4503 23.224 16.4629 23.2753 16.4824 23.3201C16.4632 23.4547 16.4184 23.5765 16.3157 23.6727L14.9315 25.0569H9.06158L7.67738 23.6727C7.56174 23.5567 7.50421 23.403 7.50421 23.2428ZM16.9757 24.3385C17.1742 24.14 17.3025 23.8963 17.3731 23.64H22.1278C22.1983 23.8963 22.3202 24.1397 22.5252 24.3385L23.3453 25.1587H16.1552L16.9757 24.3385ZM1.38451 26.0945H38.1224C38.3658 26.0945 38.5708 26.293 38.5708 26.5429V32.9957H0.936459V26.5429C0.936459 26.2995 1.135 26.0945 1.38488 26.0945H1.38451ZM5.38312 40.0641V37.001H8.54863L7.10038 40.0641H5.38312ZM29.9133 37.0075L31.3615 40.0706H8.13189L9.58014 37.0075H29.9133ZM34.117 40.0641H32.3997L30.9515 37.001H34.117V40.0641ZM38.564 35.0401C38.564 35.6038 38.1026 36.0652 37.5389 36.0652L1.96105 36.0655C1.39728 36.0655 0.935893 35.6041 0.935893 35.0404V33.9317H38.5642L38.564 35.0401Z" fill="#858A8F"/>
<path d="M3.41518 23.6466C3.67155 23.6466 3.88308 23.435 3.88308 23.1787L3.88278 17.04C3.88278 15.7903 4.89526 14.7778 6.14495 14.7778H11.2458C11.5021 14.7778 11.7137 14.5663 11.7137 14.3099C11.7137 14.0536 11.5021 13.842 11.2458 13.842H6.14495C4.38283 13.842 2.94727 15.2776 2.94727 17.0397V23.1787C2.94727 23.4351 3.15882 23.6466 3.41518 23.6466Z" fill="#858A8F"/>
<path d="M23.4211 17.8668C23.4981 17.8925 23.5748 17.899 23.6583 17.899C23.8763 17.899 24.0875 17.8158 24.2477 17.6556C24.4657 17.4376 24.5489 17.1172 24.4592 16.8225C23.4916 13.5734 25.1705 10.5682 26.7406 8.61982C27.2468 7.99173 27.4776 7.20994 27.3944 6.40901C27.3622 6.12697 27.2855 5.85792 27.1828 5.60158L29.8164 2.38471C30.0663 2.0835 30.1816 1.70559 30.1433 1.32088C30.1049 0.936483 29.9191 0.583937 29.6179 0.334089C29.3167 0.0842403 28.9323 -0.0311376 28.5479 0.00721345C28.1634 0.0455645 27.8109 0.231429 27.5611 0.532634L24.908 3.77518C24.6838 3.74302 24.4531 3.72385 24.2159 3.74302C23.3444 3.80704 22.5178 4.2236 21.9475 4.89008C20.3583 6.76134 17.7757 8.92706 14.4564 8.61968C14.1487 8.58752 13.854 8.73503 13.6811 8.99789C13.5082 9.26075 13.4953 9.58733 13.6428 9.85667C15.8851 13.8998 19.1725 16.6043 23.4208 17.8667L23.4211 17.8668ZM28.2912 1.1224C28.3809 1.01354 28.5027 0.94952 28.6437 0.936545C28.7782 0.923859 28.9193 0.962211 29.0219 1.05189C29.1308 1.14158 29.1948 1.26342 29.2078 1.40444C29.2205 1.53896 29.1821 1.67349 29.0924 1.78265L26.6701 4.74311C26.5804 4.64044 26.4972 4.53808 26.3945 4.44839C26.2344 4.30737 26.055 4.18553 25.8691 4.08965L28.2912 1.1224ZM22.6714 5.48625C23.075 5.01216 23.6647 4.71092 24.2864 4.67233C24.8439 4.63398 25.3694 4.80036 25.7668 5.15291C26.1642 5.49896 26.4076 5.97952 26.4654 6.50494C26.5229 7.05603 26.3627 7.60064 26.017 8.03015C24.3254 10.1191 22.5373 13.3425 23.5114 16.9118C23.0178 16.7581 22.5373 16.5849 22.0696 16.3863C21.7749 14.8676 22.7104 13.4194 22.7169 13.4002C22.8579 13.1822 22.8001 12.894 22.5824 12.7465C22.3644 12.6054 22.0761 12.6633 21.9351 12.881C21.8903 12.945 21.0253 14.2909 21.0763 15.912C20.3715 15.5594 19.7113 15.1428 19.0835 14.688C19.7051 12.7783 21.3135 11.6057 21.3326 11.593C21.5442 11.4455 21.5955 11.1508 21.4415 10.9392C21.294 10.7277 20.9993 10.6764 20.7878 10.8304C20.704 10.8882 19.0702 12.0739 18.2884 14.0923C17.5257 13.4581 16.8209 12.7338 16.1802 11.9328C17.7759 11.6637 18.91 10.5551 18.9613 10.5037C19.1471 10.3179 19.1471 10.0232 18.9613 9.8373C18.7819 9.65144 18.4807 9.65144 18.2948 9.83081C18.2822 9.84349 17.0516 11.01 15.5011 11.0356C15.1742 10.5616 14.8538 10.0744 14.5656 9.55522C18.1922 9.81159 20.9733 7.49191 22.6715 5.48607L22.6714 5.48625Z" fill="#858A8F"/>
<path d="M13.6944 17.2384C13.9826 17.4564 14.3287 17.5718 14.6812 17.5718C14.7582 17.5718 14.8287 17.5653 14.9054 17.5591C15.3411 17.5016 15.7255 17.2771 15.9884 16.9248C16.2513 16.5788 16.3666 16.143 16.3088 15.7138C16.2513 15.2781 16.0268 14.8937 15.6745 14.6243C15.3285 14.3614 14.8927 14.2461 14.457 14.3039C13.5598 14.4258 12.9318 15.2586 13.0601 16.1558C13.1179 16.5912 13.3421 16.9755 13.6944 17.2384ZM14.5853 15.2326C14.6175 15.2261 14.6493 15.2261 14.6815 15.2261C14.8352 15.2261 14.9827 15.2774 15.1046 15.3671C15.2521 15.4825 15.3479 15.6492 15.3736 15.835C15.3993 16.0209 15.3479 16.2002 15.2391 16.3539C15.1237 16.5014 14.9571 16.5973 14.7712 16.623C14.5853 16.6487 14.406 16.5973 14.2523 16.4885C14.1048 16.3731 14.0089 16.2129 13.9832 16.0271C13.9381 15.6427 14.2071 15.2904 14.5853 15.2326Z" fill="#858A8F"/>
<path d="M17.0834 4.44779C17.1604 4.44779 17.2436 4.44129 17.3268 4.42861C17.8008 4.36459 18.2239 4.12091 18.5121 3.7365C18.8003 3.35829 18.9222 2.88421 18.8582 2.41634C18.7941 1.94225 18.5505 1.51919 18.1661 1.23099C17.7816 0.942763 17.3073 0.814433 16.8397 0.884942C16.3656 0.94896 15.949 1.19264 15.6605 1.57705C15.3723 1.95526 15.2505 2.42934 15.3145 2.9034C15.4366 3.80085 16.2054 4.44779 17.0834 4.44779ZM16.4104 2.14725C16.545 1.96788 16.7438 1.85253 16.968 1.82037C17.0064 1.81388 17.045 1.81388 17.0834 1.81388C17.2692 1.81388 17.4486 1.87141 17.5961 1.98677C17.7755 2.12129 17.8908 2.32633 17.923 2.55054C17.9551 2.77475 17.8973 2.99896 17.7563 3.17862C17.6218 3.35799 17.4167 3.47334 17.1925 3.5055C16.7246 3.57601 16.3019 3.24264 16.2378 2.78154C16.2119 2.55113 16.2694 2.32691 16.4104 2.14725Z" fill="#858A8F"/>
<path d="M29.0152 12.5288C28.586 12.2019 28.054 12.0674 27.5221 12.1379C26.9902 12.2084 26.5223 12.4839 26.1958 12.9132C25.8689 13.3425 25.7344 13.8679 25.8049 14.3998C25.9394 15.4058 26.8047 16.1363 27.7915 16.1363C27.8812 16.1363 27.9709 16.1298 28.0671 16.1171C28.599 16.0466 29.0731 15.771 29.3999 15.3418C29.7268 14.9125 29.8613 14.3871 29.7908 13.8551C29.72 13.3297 29.438 12.8556 29.0152 12.5288ZM28.65 14.778C28.4771 15.0087 28.2208 15.1497 27.9387 15.1945C27.6567 15.2329 27.3749 15.1624 27.1504 14.9895C26.9262 14.8166 26.7787 14.5664 26.7403 14.2847C26.702 14.0027 26.7725 13.7209 26.9454 13.4902C27.1182 13.266 27.3684 13.1185 27.6501 13.0801C27.7015 13.0736 27.7463 13.0674 27.7977 13.0674C28.0284 13.0674 28.2526 13.1444 28.4449 13.2854C28.6756 13.4583 28.8166 13.7085 28.8615 13.9967C28.8998 14.2717 28.8229 14.5537 28.65 14.778Z" fill="#858A8F"/>
</svg>
