<svg width="47" height="35" viewBox="0 0 47 35" fill="none" xmlns="http://www.w3.org/2000/svg">
<path d="M25.4839 19.9529H25.3589V20.0779V24.7112V24.8362H25.4839H31.6617H31.7867V24.7112V20.0779V19.9529H31.6617H25.4839ZM32.4339 26.1307H24.7117C24.54 26.1307 24.3753 26.0625 24.254 25.9412C24.1327 25.8198 24.0645 25.6551 24.0645 25.4835V19.3057C24.0645 18.9483 24.3543 18.6584 24.7117 18.6584H32.4339C32.6056 18.6584 32.7703 18.7266 32.8916 18.848C33.013 18.9693 33.0812 19.134 33.0812 19.3057V25.4835C33.0812 25.6551 33.0129 25.8198 32.8916 25.9412C32.7703 26.0625 32.6056 26.1307 32.4339 26.1307Z" fill="#858A8F" stroke="white" stroke-width="0.25"/>
<path d="M36.9415 30.1165V30.2415H37.0665H41.6999C41.8715 30.2415 42.0362 30.3097 42.1576 30.4311C42.2789 30.5524 42.3471 30.7171 42.3471 30.8888V33.9777C42.3471 34.1493 42.2789 34.314 42.1576 34.4353C42.0362 34.5567 41.8715 34.6249 41.6999 34.6249H4.63306C4.46143 34.6249 4.29672 34.5567 4.17538 34.4353C4.05404 34.314 3.98584 34.1493 3.98584 33.9777V30.8888C3.98584 30.5313 4.27566 30.2415 4.63306 30.2415H9.26641H9.39141V30.1165V13.1276V13.0026H9.26641H7.72196C7.51871 13.0026 7.3275 12.9075 7.20537 12.7455L7.20528 12.7454C7.08284 12.5834 7.04376 12.3733 7.09928 12.1778L10.1881 1.36687L10.1882 1.36677C10.2673 1.08889 10.5216 0.896973 10.8109 0.896973H35.5221C35.8114 0.896973 36.0656 1.08889 36.1448 1.36677L36.1448 1.36687L39.2336 12.1778C39.2337 12.1779 39.2337 12.1779 39.2337 12.178C39.2892 12.3734 39.2501 12.5834 39.1276 12.7454L39.1276 12.7455C39.0054 12.9075 38.8142 13.0026 38.611 13.0026H37.0665H36.9415V13.1276V30.1165ZM11.3933 2.19143H11.2991L11.2732 2.28209L8.62517 11.5488L8.57964 11.7081H8.74536H37.5869H37.7526L37.7071 11.5488L35.0598 2.2821L35.0339 2.19143H34.9396H11.3933ZM10.8111 13.0026H10.6861V13.1276V30.1165V30.2415H10.8111H12.3555H12.4805V30.1165V18.5332C12.4805 18.1757 12.7703 17.8859 13.1277 17.8859H20.85C21.0216 17.8859 21.1863 17.9541 21.3077 18.0755C21.429 18.1968 21.4972 18.3615 21.4972 18.5332V30.1165V30.2415H21.6222H35.5223H35.6473V30.1165V13.1276V13.0026H35.5223H10.8111ZM20.0778 30.2415H20.2028V30.1165V19.3054V19.1804H20.0778H13.9H13.775V19.3054V30.1165V30.2415H13.9H20.0778ZM40.9278 33.3304H41.0528V33.2054V31.661V31.536H40.9278H5.40549H5.28049V31.661V33.2054V33.3304H5.40549H40.9278Z" fill="#858A8F" stroke="white" stroke-width="0.25"/>
<path d="M3.96107 3.01379L3.86108 2.88053L3.76109 3.01379C3.54859 3.29702 3.29706 3.54855 3.01384 3.76105L2.88058 3.86104L3.01384 3.96102C3.29706 4.17353 3.54859 4.42506 3.76109 4.70828L3.86108 4.84154L3.96107 4.70828C4.17357 4.42506 4.4251 4.17353 4.70832 3.96102L4.84158 3.86104L4.70832 3.76105C4.4251 3.54855 4.17357 3.29702 3.96107 3.01379ZM4.31876 7.40762C4.19743 7.52896 4.03272 7.59716 3.86108 7.59716C3.68944 7.59716 3.52473 7.52896 3.40339 7.40762C3.28206 7.28628 3.21386 7.12158 3.21386 6.94994C3.21386 6.30254 2.95653 5.6812 2.4988 5.22338C2.04104 4.76554 1.41969 4.50831 0.772225 4.50831C0.414816 4.50831 0.125 4.21849 0.125 3.86108C0.125 3.50367 0.414816 3.21386 0.772225 3.21386C1.41962 3.21386 2.04096 2.95654 2.49878 2.4988C2.95662 2.04104 3.21386 1.41969 3.21386 0.772225C3.21386 0.414816 3.50367 0.125 3.86108 0.125C4.21849 0.125 4.50831 0.414816 4.50831 0.772225C4.50831 1.41962 4.76563 2.04096 5.22336 2.49878C5.68112 2.95662 6.30247 3.21386 6.94993 3.21386C7.30734 3.21386 7.59716 3.50367 7.59716 3.86108C7.59716 4.21849 7.30734 4.50831 6.94993 4.50831C6.30254 4.50831 5.6812 4.76563 5.22338 5.22336C4.76554 5.68112 4.50831 6.30247 4.50831 6.94994C4.50831 7.12157 4.4401 7.28628 4.31876 7.40762Z" fill="#858A8F" stroke="white" stroke-width="0.25"/>
<path d="M42.3724 18.6085L42.4724 18.7417L42.5724 18.6085C42.7849 18.3252 43.0364 18.0737 43.3196 17.8612L43.4529 17.7612L43.3196 17.6612C43.0364 17.4487 42.7849 17.1972 42.5724 16.914L42.4724 16.7807L42.3724 16.914C42.1599 17.1972 41.9083 17.4487 41.6251 17.6612L41.4919 17.7612L41.6251 17.8612C41.9083 18.0737 42.1599 18.3252 42.3724 18.6085ZM43.8347 16.3989C44.2925 16.8568 44.9138 17.114 45.5613 17.114C45.9187 17.114 46.2085 17.4038 46.2085 17.7612C46.2085 18.1186 45.9187 18.4085 45.5613 18.4085C44.9139 18.4085 44.2925 18.6658 43.8347 19.1235C43.3769 19.5813 43.1196 20.2026 43.1196 20.8501C43.1196 21.2075 42.8298 21.4973 42.4724 21.4973C42.115 21.4973 41.8252 21.2075 41.8252 20.8501C41.8252 20.2027 41.5679 19.5813 41.1101 19.1235C40.6524 18.6657 40.031 18.4085 39.3836 18.4085C39.0261 18.4085 38.7363 18.1186 38.7363 17.7612C38.7363 17.4038 39.0261 17.114 39.3836 17.114C40.0309 17.114 40.6523 16.8567 41.1101 16.3989C41.568 15.9412 41.8252 15.3198 41.8252 14.6724C41.8252 14.315 42.115 14.0251 42.4724 14.0251C42.8298 14.0251 43.1196 14.315 43.1196 14.6724C43.1196 15.3198 43.377 15.9411 43.8347 16.3989Z" fill="#858A8F" stroke="white" stroke-width="0.25"/>
<path d="M4.75879 14.7974H6.05324V16.0918H4.75879V14.7974Z" fill="#858A8F" stroke="white" stroke-width="0.25"/>
<path d="M4.75879 17.8862H6.05324V19.1807H4.75879V17.8862Z" fill="#858A8F" stroke="white" stroke-width="0.25"/>
<path d="M3.21338 16.3416H4.50783V17.636H3.21338V16.3416Z" fill="#858A8F" stroke="white" stroke-width="0.25"/>
<path d="M6.30273 16.3416H7.59718V17.636H6.30273V16.3416Z" fill="#858A8F" stroke="white" stroke-width="0.25"/>
<path d="M4.75879 14.7974H6.05324V16.0918H4.75879V14.7974Z" fill="#858A8F" stroke="white" stroke-width="0.25"/>
<path d="M4.75879 17.8862H6.05324V19.1807H4.75879V17.8862Z" fill="#858A8F" stroke="white" stroke-width="0.25"/>
<path d="M3.21338 16.3416H4.50783V17.636H3.21338V16.3416Z" fill="#858A8F" stroke="white" stroke-width="0.25"/>
<path d="M6.30273 16.3416H7.59718V17.636H6.30273V16.3416Z" fill="#858A8F" stroke="white" stroke-width="0.25"/>
<path d="M43.3691 7.07495H44.6636V8.3694H43.3691V7.07495Z" fill="#858A8F" stroke="white" stroke-width="0.25"/>
<path d="M43.3691 10.1641H44.6636V11.4585H43.3691V10.1641Z" fill="#858A8F" stroke="white" stroke-width="0.25"/>
<path d="M41.8247 8.61938H43.1192V9.91383H41.8247V8.61938Z" fill="#858A8F" stroke="white" stroke-width="0.25"/>
<path d="M44.9141 8.61938H46.2085V9.91383H44.9141V8.61938Z" fill="#858A8F" stroke="white" stroke-width="0.25"/>
</svg>
