<svg width="34" height="34" viewBox="0 0 34 34" fill="none" xmlns="http://www.w3.org/2000/svg">
<path d="M0.704643 15.1952L1.91743 14.1377V33.5749C1.91743 33.8097 2.10775 34 2.34256 34H31.6581C31.8929 34 32.0832 33.8097 32.0832 33.5749V14.1377L33.296 15.1952C33.3767 15.2654 33.4763 15.2998 33.5753 15.2998C33.6939 15.2998 33.8119 15.2503 33.8958 15.1543C34.0499 14.9773 34.0315 14.709 33.8546 14.5545L28.1569 9.58705V0.425127C28.1569 0.190327 27.9666 0 27.7318 0H22.8443C22.6095 0 22.4192 0.190327 22.4192 0.425127V4.58533L17.2795 0.104627C17.1194 -0.0347065 16.881 -0.0347065 16.7209 0.104627L0.145686 14.5548C-0.0310023 14.7093 -0.0496797 14.9776 0.104478 15.1546C0.258338 15.3307 0.52723 15.3496 0.704214 15.1955L0.704643 15.1952ZM23.2694 0.849708H27.3069V8.84589L23.2694 5.32601V0.849708ZM17.0004 0.988746L31.2336 13.3966V33.1503H2.76805V13.3966L17.0004 0.988746Z" fill="#858A8F"/>
<path d="M20.7671 22.3097C20.7671 22.5445 20.9574 22.7348 21.1922 22.7348C21.427 22.7348 21.6173 22.5445 21.6173 22.3097C21.6173 21.4319 22.3315 20.7177 23.2094 20.7177C23.4442 20.7177 23.6345 20.5274 23.6345 20.2926C23.6345 20.0578 23.4442 19.8674 23.2094 19.8674C21.8626 19.8677 20.7671 20.9632 20.7671 22.3097Z" fill="#858A8F"/>
<path d="M18.0642 22.3787C18.1896 22.3787 18.3145 22.3671 18.4396 22.3597C18.4665 24.9673 20.5943 27.0811 23.2084 27.0811C25.8392 27.0811 27.9797 24.9407 27.9797 22.3099C27.9797 19.9964 26.324 18.0637 24.1358 17.6306C24.2579 17.1385 24.3228 16.6325 24.3228 16.1199C24.3228 12.669 21.5154 9.86157 18.0643 9.86157C14.6131 9.86157 11.8057 12.669 11.8057 16.1202C11.8057 19.5713 14.6131 22.3788 18.0643 22.3788L18.0642 22.3787ZM27.1298 22.3099C27.1298 24.472 25.3709 26.2309 23.2088 26.2309C21.0467 26.2309 19.2875 24.472 19.2875 22.3099C19.2875 20.1478 21.0467 18.3886 23.2088 18.3886C25.3709 18.3886 27.1298 20.1478 27.1298 22.3099ZM18.0642 10.7118C21.0467 10.7118 23.4726 13.138 23.4726 16.1201C23.4726 16.604 23.4053 17.081 23.2799 17.5422C23.2559 17.5419 23.2325 17.5387 23.2085 17.5387C20.8519 17.5387 18.8943 19.2575 18.5102 21.5062C18.3622 21.5184 18.2131 21.5287 18.064 21.5287C15.0816 21.5287 12.6553 19.1025 12.6553 16.1201C12.6556 13.138 15.0822 10.7117 18.0643 10.7117L18.0642 10.7118Z" fill="#858A8F"/>
<path d="M14.749 16.5451C14.9838 16.5451 15.1742 16.3548 15.1742 16.12C15.1742 14.5259 16.4712 13.2289 18.0656 13.2289C18.3004 13.2289 18.4907 13.0386 18.4907 12.8038C18.4907 12.569 18.3004 12.3787 18.0656 12.3787C16.0025 12.3787 14.3242 14.0569 14.3242 16.12C14.3239 16.3548 14.5142 16.5451 14.749 16.5451Z" fill="#858A8F"/>
<path d="M6.16666 24.7939L7.31873 25.4238C8.39696 26.0135 9.27861 26.8949 9.86831 27.9734L10.4983 29.1255C10.5727 29.2616 10.7159 29.3463 10.8712 29.3463C11.0266 29.3463 11.1698 29.2616 11.2442 29.1255L11.8742 27.9734C12.4638 26.8952 13.3455 26.0135 14.4238 25.4238L15.5758 24.7939C15.7122 24.7194 15.7967 24.5762 15.7967 24.4209C15.797 24.2653 15.7122 24.1224 15.5758 24.0479L14.4238 23.418C13.3455 22.8283 12.4639 21.9469 11.8742 20.8684L11.2442 19.7163C11.0951 19.4442 10.6474 19.4442 10.4983 19.7163L9.86832 20.8684C9.27866 21.9466 8.39727 22.8283 7.31874 23.418L6.16667 24.0479C6.03059 24.1224 5.9458 24.2656 5.9458 24.4209C5.9458 24.5762 6.03058 24.7191 6.16666 24.7939ZM7.72696 24.1636C8.9481 23.4956 9.94656 22.4975 10.6142 21.2763L10.8712 20.8062L11.1283 21.2763C11.7962 22.4975 12.7947 23.4959 14.0158 24.1636L14.486 24.4206L14.0158 24.6776C12.7947 25.3456 11.7962 26.3437 11.1283 27.5649L10.8712 28.0351L10.6142 27.5649C9.94627 26.3437 8.9481 25.3453 7.72696 24.6776L7.25678 24.4206L7.72696 24.1636Z" fill="#858A8F"/>
<path d="M18.8946 27.7218H17.8291V26.6563C17.8291 26.4215 17.6388 26.2312 17.404 26.2312C17.1692 26.2312 16.9789 26.4215 16.9789 26.6563V27.7218H15.9134C15.6786 27.7218 15.4883 27.9121 15.4883 28.1469C15.4883 28.3817 15.6786 28.5721 15.9134 28.5721H16.9789V29.6375C16.9789 29.8723 17.1692 30.0627 17.404 30.0627C17.6388 30.0627 17.8291 29.8723 17.8291 29.6375V28.5721H18.8946C19.1294 28.5721 19.3197 28.3817 19.3197 28.1469C19.3194 27.9121 19.1291 27.7218 18.8946 27.7218Z" fill="#858A8F"/>
<path d="M6.54427 17.0179H7.60974V18.0833C7.60974 18.3181 7.80007 18.5085 8.03487 18.5085C8.26967 18.5085 8.46 18.3181 8.46 18.0833V17.0179H9.52547C9.76027 17.0179 9.9506 16.8275 9.9506 16.5927C9.9506 16.3579 9.76027 16.1676 9.52547 16.1676H8.46V15.1021C8.46 14.8673 8.26967 14.677 8.03487 14.677C7.80007 14.677 7.60974 14.8673 7.60974 15.1021V16.1676H6.54427C6.30947 16.1676 6.11914 16.3579 6.11914 16.5927C6.11914 16.8275 6.30947 17.0179 6.54427 17.0179Z" fill="#858A8F"/>
</svg>
