<svg width="40" height="28" viewBox="0 0 40 28" fill="none" xmlns="http://www.w3.org/2000/svg">
<path d="M13.6608 10.1019V17.8986H0.530303V10.1019H13.6608ZM24.0881 19.6725V27.4697H10.9581V19.6725H24.0881ZM6.03759 0.530303H19.1681V8.32754H6.03759V0.530303ZM20.4487 8.32765V0.530414H33.5793V8.32765H20.4487ZM37.7892 20.9014V20.3711H37.2589H26.6111H26.0808V20.9014V26.2408V26.7711H26.6111H37.2589H37.7892V26.2408V20.9014ZM23.3777 20.9014V20.3711H22.8474H12.1991H11.6688V20.9014V26.2408V26.7711H12.1991H22.8474H23.3777V26.2408V20.9014ZM27.362 11.3305V10.8002H26.8317H16.1833H15.653V11.3305V16.6699V17.2002H16.1833H26.8317H27.362V16.6699V11.3305ZM12.9501 11.3305V10.8002H12.4198H1.77138H1.24108V11.3305V16.6699V17.2002H1.77138H12.4198H12.9501V16.6699V11.3305ZM32.8685 1.75939V1.22908H32.3382H21.6898H21.1595V1.75939V7.09879V7.62909H21.6898H32.3382H32.8685V7.09879V1.75939ZM18.4566 1.75939V1.22908H17.9263H7.27789H6.74759V1.75939V7.09879V7.62909H7.27789H17.9263H18.4566V7.09879V1.75939ZM38.5 19.6725V27.4697H25.37V19.6725H38.5ZM28.0723 10.1019V17.8986H14.9423V10.1019H28.0723Z" stroke="#A6AFB8" stroke-width="1.06061"/>
</svg>
